<?xml version="1.0" encoding="UTF-8" standalone="no"?>
<!-- Created with Inkscape (http://www.inkscape.org/) -->

<svg
   width="26.458334mm"
   height="10.831364mm"
   viewBox="0 0 26.458334 10.831364"
   version="1.1"
   id="svg1"
   xml:space="preserve"
   xmlns="http://www.w3.org/2000/svg"
   xmlns:svg="http://www.w3.org/2000/svg"><defs
     id="defs1" /><g
     id="layer1"
     transform="translate(-14.715569,-169.73463)"><path
       style="fill:#000000;stroke-width:0.15625"
       d="m 14.71557,175.15033 v -5.4157 h 0.124033 0.124034 v 5.4157 5.41567 H 14.839603 14.71557 Z m 0.537435,0 v -5.4157 h 0.1447 0.1447 v 5.4157 5.41567 h -0.1447 -0.1447 z m 12.236975,0 v -5.4157 h 0.165383 0.16535 v 5.4157 5.41567 h -0.16535 -0.165383 z m 0.578773,0 v -5.4157 h 0.124017 0.124033 v 5.4157 5.41567 H 28.19277 28.068753 Z m 12.236975,0 v -5.4157 h 0.165384 0.165383 v 5.4157 5.41567 h -0.165383 -0.165384 z m 0.578775,0 v -5.4157 h 0.1447 0.1447 v 5.4157 5.41567 h -0.1447 -0.1447 z m -25.052723,-0.0412 v -5.37435 h 0.413412 0.413411 v 5.37435 5.37435 H 16.245192 15.83178 Z m 1.074868,0 v -5.37435 h 0.28939 0.289389 v 5.37435 5.37435 h -0.289389 -0.28939 z m 1.4056,0 v -5.37435 h 0.165384 0.165366 v 5.37435 5.37435 h -0.165366 -0.165384 z m 0.826822,0 v -5.37435 h 0.165383 0.165384 v 5.37435 5.37435 H 19.304453 19.13907 Z m 0.578778,0 v -5.37435 h 0.41341 0.413412 v 5.37435 5.37435 h -0.413412 -0.41341 z m 1.405597,0 v -5.37435 h 0.124017 0.124033 v 5.37435 5.37435 h -0.124033 -0.124017 z m 0.537435,0 v -5.37435 h 0.537435 0.537433 v 5.37435 5.37435 H 22.198315 21.66088 Z m 1.405598,0 v -5.37435 h 0.124017 0.124033 v 5.37435 5.37435 h -0.124033 -0.124017 z m 0.578775,0 v -5.37435 h 0.413414 0.413408 v 5.37435 5.37435 h -0.413408 -0.413414 z m 1.4056,0 v -5.37435 h 0.124017 0.124033 v 5.37435 5.37435 H 25.17487 25.050853 Z m 0.496092,0 v -5.37435 h 0.558105 0.558107 v 5.37435 5.37435 H 26.10505 25.546945 Z m 1.4056,0 v -5.37435 h 0.1447 0.1447 v 5.37435 5.37435 h -0.1447 -0.1447 z m 1.694983,0 v -5.37435 h 0.289389 0.28939 v 5.37435 5.37435 h -0.28939 -0.289389 z m 1.07487,0 v -5.37435 h 0.289387 0.28939 v 5.37435 5.37435 h -0.28939 -0.289387 z m 0.868165,0 v -5.37435 h 0.413412 0.413413 v 5.37435 5.37435 h -0.413413 -0.413412 z m 1.405599,0 v -5.37435 h 0.124016 0.124034 v 5.37435 5.37435 h -0.124034 -0.124016 z m 0.537435,0 v -5.37435 h 0.1447 0.1447 v 5.37435 5.37435 h -0.1447 -0.1447 z m 0.537435,0 v -5.37435 h 0.16535 0.165383 v 5.37435 5.37435 h -0.165383 -0.16535 z m 1.405596,0 v -5.37435 h 0.28939 0.289389 v 5.37435 5.37435 h -0.289389 -0.28939 z m 1.11621,0 v -5.37435 h 0.268717 0.26872 v 5.37435 5.37435 h -0.26872 -0.268717 z m 0.826825,0 v -5.37435 h 0.289387 0.289388 v 5.37435 5.37435 H 36.70905 36.419663 Z m 0.826822,0 v -5.37435 h 0.289387 0.289388 v 5.37435 5.37435 h -0.289388 -0.289387 z m 1.157552,0 v -5.37435 h 0.124016 0.124034 v 5.37435 5.37435 h -0.124034 -0.124016 z m 0.826823,0 v -5.37435 h 0.124017 0.124016 v 5.37435 5.37435 H 39.354877 39.23086 Z"
       id="path1" /></g></svg>
