<?xml version="1.0" encoding="UTF-8" standalone="no"?>
<!-- Created with Inkscape (http://www.inkscape.org/) -->

<svg
   width="233.74167mm"
   height="169.69543mm"
   viewBox="0 0 233.74167 169.69543"
   version="1.1"
   id="svg1"
   xml:space="preserve"
   inkscape:export-filename="book.svg"
   inkscape:export-xdpi="96"
   inkscape:export-ydpi="96"
   xmlns:inkscape="http://www.inkscape.org/namespaces/inkscape"
   xmlns:sodipodi="http://sodipodi.sourceforge.net/DTD/sodipodi-0.dtd"
   xmlns="http://www.w3.org/2000/svg"
   xmlns:svg="http://www.w3.org/2000/svg"><sodipodi:namedview
     id="namedview1"
     pagecolor="#ffffff"
     bordercolor="#111111"
     borderopacity="1"
     inkscape:showpageshadow="0"
     inkscape:pageopacity="0"
     inkscape:pagecheckerboard="1"
     inkscape:deskcolor="#d1d1d1"
     inkscape:document-units="mm" /><defs
     id="defs1" /><g
     inkscape:label="Слой 1"
     inkscape:groupmode="layer"
     id="layer1"
     transform="translate(1109.8439,-75.613958)"><path
       d="m -981.32873,76.798413 -0.0801,65.297827 c 0.0144,0.01 0.0917,0.0178 0.1018,0.0279 l -0.1049,2.6448 -0.0326,26.43353 c 0.0293,0.0167 0.15655,0.03 0.17364,0.047 l -0.0956,4.86481 c -0.0106,0.005 -0.0708,0.008 -0.0837,0.0124 l -0.0305,24.93904 c 0.0165,0.011 0.10302,0.0193 0.1142,0.0305 v 4.72168 c -0.0151,0.007 -0.10049,0.0108 -0.1204,0.0176 l -0.0295,24.44398 c 0.0163,0.0109 0.10263,0.0195 0.11369,0.0305 l -0.0956,4.86534 c -0.003,0.001 -0.021,0.002 -0.0243,0.004 l -0.0109,8.69766 c 0.11394,-0.004 0.21416,-0.0224 0.34055,-0.0124 0.26621,0.0211 0.56146,0.0758 0.8909,0.17364 0.32944,0.0978 0.69305,0.23889 1.09657,0.43408 l 99.76859,-0.33796 c 0.38094,-0.0256 0.7502,-0.07 1.08986,-0.16123 0.33965,-0.0912 0.64967,-0.2293 0.9126,-0.44236 0.13147,-0.10652 0.25144,-0.23176 0.35709,-0.3793 0.10564,-0.14754 0.19694,-0.31704 0.27233,-0.51263 0.15078,-0.39118 0.23658,-0.88543 0.23978,-1.51102 l -0.17673,-161.457328 c 0.0104,-0.337367 -0.002,-0.642902 -0.0346,-0.91984 -0.0327,-0.276938 -0.0856,-0.525261 -0.15709,-0.747758 -0.0715,-0.222497 -0.16117,-0.419199 -0.26717,-0.593245 -0.106,-0.174047 -0.22858,-0.325236 -0.36484,-0.45682 -0.2725,-0.263168 -0.60101,-0.447454 -0.96893,-0.576709 -0.36792,-0.129255 -0.77486,-0.203241 -1.20406,-0.246497 l -99.09524,0.225826 c -0.31182,0.119365 -0.62465,0.234892 -0.9462,0.325045 -0.32155,0.09015 -0.65175,0.155122 -0.99735,0.173116 -0.17469,0.0091 -0.3678,-0.03718 -0.55139,-0.05478 z m 68.92344,5.956226 c 0.51875,-0.0045 0.98926,0.05837 1.41232,0.176733 0.42305,0.118358 0.79832,0.292571 1.12603,0.511597 0.32771,0.219026 0.60806,0.482813 0.84077,0.780314 0.23272,0.2975 0.41796,0.628587 0.55604,0.982369 0.0641,-0.163608 0.083,-0.369038 0.12764,-0.592212 0.0447,-0.223174 0.11523,-0.464065 0.28215,-0.699699 0.0835,-0.117817 0.19119,-0.234132 0.33177,-0.346232 0.14057,-0.1121 0.31429,-0.2199 0.52968,-0.320394 0.21539,-0.100494 0.4724,-0.193985 0.78031,-0.276986 0.30792,-0.083 0.66656,-0.155872 1.08469,-0.21549 l 23.38411,0.236678 -0.27027,26.362733 c -0.11829,0.47546 -0.28293,0.89277 -0.48731,1.25935 -0.20438,0.36659 -0.44851,0.68262 -0.72657,0.95602 -0.27806,0.2734 -0.58982,0.5043 -0.92914,0.70021 -0.33933,0.19592 -0.70633,0.35681 -1.09451,0.49093 0.33124,0.17749 0.67903,0.26733 1.02526,0.36483 0.34623,0.0975 0.691,0.20262 1.01648,0.41083 0.16273,0.10411 0.32044,0.23399 0.47128,0.40153 0.15085,0.16754 0.29495,0.37306 0.42944,0.62787 0.13448,0.25481 0.25945,0.55909 0.3731,0.925 0.11365,0.36592 0.21603,0.79312 0.30437,1.29398 l -0.15658,36.1673 c -0.014,0.52618 -0.1118,0.97359 -0.27595,1.35858 -0.16415,0.38499 -0.39458,0.70763 -0.67438,0.98392 -0.27979,0.27628 -0.60856,0.50635 -0.96945,0.70641 -0.36088,0.20007 -0.75374,0.36975 -1.16116,0.52607 0.41141,0.093 0.81437,0.22725 1.20406,0.42891 0.38968,0.20167 0.76603,0.47103 1.12344,0.83406 0.35742,0.36303 0.69619,0.81972 1.01079,1.39682 0.3146,0.57709 0.60485,1.27435 0.8661,2.11821 -0.15888,0.49882 -0.32998,0.99933 -0.53589,1.47795 -0.2059,0.47861 -0.44627,0.93548 -0.7431,1.34824 -0.29683,0.41275 -0.65046,0.78137 -1.08211,1.08262 -0.21582,0.15062 -0.45124,0.28424 -0.709,0.39842 -0.25776,0.11419 -0.53766,0.20856 -0.84284,0.28061 0.42271,0.23737 0.83783,0.48569 1.2268,0.76946 0.38896,0.28377 0.75158,0.60293 1.07022,0.9834 0.31863,0.38047 0.59288,0.82231 0.8046,1.34979 0.10586,0.26374 0.19645,0.54893 0.26872,0.85886 0.0723,0.30993 0.12661,0.64426 0.16071,1.00666 l -0.29145,32.43264 c -0.0272,0.42701 -0.0125,0.84177 -0.0191,1.26298 -0.007,0.4212 -0.0347,0.84887 -0.14832,1.30018 -0.0568,0.22565 -0.13488,0.4572 -0.24236,0.69711 -0.10748,0.23991 -0.24446,0.48808 -0.41858,0.74672 -0.17411,0.25865 -0.38564,0.5279 -0.64234,0.80977 -0.25669,0.28188 -0.5584,0.57615 -0.91363,0.88574 0.31754,0.24321 0.64644,0.45214 0.96324,0.69763 0.31681,0.24549 0.62166,0.52755 0.89142,0.91777 0.13488,0.19512 0.26073,0.41741 0.37517,0.67541 0.11444,0.25801 0.2172,0.55168 0.30541,0.89039 0.0882,0.33871 0.16188,0.7224 0.21808,1.15962 0.0562,0.43722 0.0948,0.92803 0.11317,1.48156 l -0.10026,22.67562 -25.20828,0.21239 c -0.25574,0.006 -0.50264,-0.0337 -0.73897,-0.12454 -0.23633,-0.0909 -0.46211,-0.23274 -0.67696,-0.43098 -0.21485,-0.19824 -0.41847,-0.4525 -0.60978,-0.76843 -0.19132,-0.31593 -0.37069,-0.69347 -0.5364,-1.1374 -0.11761,0.31802 -0.24979,0.62326 -0.40928,0.90537 -0.15949,0.28212 -0.34601,0.54137 -0.57154,0.76688 -0.22553,0.22551 -0.49043,0.41714 -0.80615,0.56534 -0.31573,0.14821 -0.68253,0.25263 -1.1126,0.30283 l -31.58102,-0.20258 c -0.24469,-0.0743 -0.48826,-0.15484 -0.72708,-0.26044 -0.23883,-0.10561 -0.47286,-0.23632 -0.69867,-0.41135 -0.22581,-0.17503 -0.44341,-0.39437 -0.64905,-0.67696 -0.20565,-0.28259 -0.39942,-0.62851 -0.57775,-1.05678 -0.0861,0.23629 -0.21144,0.46203 -0.37207,0.67799 -0.16062,0.21596 -0.35621,0.42218 -0.58291,0.62012 -0.45339,0.39588 -1.03078,0.75837 -1.69757,1.09606 l -24.4631,-0.0103 -0.0558,-25.80101 c 7.5e-4,-0.35329 0.0112,-0.70392 0.0615,-1.04335 0.0503,-0.33942 0.14013,-0.66769 0.29921,-0.97668 0.15908,-0.30899 0.3877,-0.59844 0.71468,-0.86041 0.32698,-0.26198 0.75234,-0.49666 1.30638,-0.69505 -0.44867,-0.19275 -0.8224,-0.43641 -1.13688,-0.7214 -0.31448,-0.285 -0.56946,-0.61131 -0.7798,-0.9679 -0.21034,-0.3566 -0.37638,-0.74382 -0.51263,-1.15135 -0.13624,-0.40754 -0.24266,-0.83498 -0.33486,-1.2728 l -0.20257,-35.83037 c 0.002,-0.32126 0.027,-0.61206 0.0708,-0.87643 0.0439,-0.26437 0.10688,-0.50217 0.18656,-0.71727 0.15935,-0.43019 0.38478,-0.76967 0.65422,-1.04851 0.26943,-0.27884 0.58262,-0.49727 0.91777,-0.68575 0.33516,-0.18848 0.69251,-0.34681 1.04903,-0.50591 -0.30359,-0.10125 -0.61101,-0.18929 -0.90898,-0.31161 -0.29798,-0.12232 -0.58666,-0.27894 -0.8537,-0.51728 -0.26704,-0.23834 -0.51217,-0.55838 -0.72295,-1.00769 -0.21079,-0.44931 -0.38756,-1.02814 -0.51677,-1.78336 -0.002,-0.5228 0.0403,-1.02924 0.14211,-1.5136 0.10183,-0.48435 0.26337,-0.94664 0.50075,-1.38079 0.23737,-0.43416 0.55033,-0.84013 0.95498,-1.21233 0.40465,-0.3722 0.90117,-0.71023 1.50482,-1.00873 -0.28567,-0.21242 -0.56077,-0.29094 -0.81856,-0.36483 -0.25779,-0.0739 -0.49846,-0.1435 -0.71572,-0.33848 -0.10862,-0.0975 -0.21135,-0.22611 -0.30747,-0.40256 -0.0961,-0.17645 -0.18566,-0.40047 -0.26769,-0.68833 -0.16405,-0.57573 -0.29815,-1.40699 -0.39635,-2.6231 l 0.16795,-36.00968 c 0.0385,-0.37386 0.1047,-0.72741 0.2098,-1.05317 0.10511,-0.32576 0.24883,-0.62354 0.44339,-0.8847 0.19455,-0.26116 0.43988,-0.48605 0.74672,-0.66611 0.30684,-0.18006 0.67528,-0.31544 1.11724,-0.39791 -0.46762,-0.16211 -0.87947,-0.37894 -1.23506,-0.64854 -0.35559,-0.26959 -0.6547,-0.5919 -0.89711,-0.96531 -0.2424,-0.37342 -0.42798,-0.79766 -0.55603,-1.27124 -0.12806,-0.47358 -0.1988,-0.99623 -0.21136,-1.56632 l 0.22479,-24.722002 22.13612,-0.123507 c 0.39891,0.01636 0.79818,0.03128 1.19579,0.08682 0.39761,0.05553 0.79402,0.151788 1.18753,0.330212 0.39351,0.178425 0.78384,0.439207 1.17047,0.824239 0.38662,0.385032 0.76924,0.894059 1.14618,1.569414 0.18435,-0.250447 0.30426,-0.564785 0.43615,-0.892969 0.13189,-0.328184 0.27605,-0.669943 0.5085,-0.975651 0.11622,-0.152854 0.2542,-0.296852 0.42426,-0.425297 0.17005,-0.128445 0.37194,-0.241287 0.61495,-0.332796 0.24301,-0.09151 0.52738,-0.161558 0.86248,-0.203606 0.33509,-0.04205 0.72106,-0.05612 1.16737,-0.03617 z"
       style="fill:none;stroke:#000000;stroke-width:0.925999;stroke-opacity:1"
       id="path23"
       inkscape:export-filename="book.svg"
       inkscape:export-xdpi="96"
       inkscape:export-ydpi="96" /><path
       d="m -981.53337,243.87659 0.0109,-8.69766 c -0.17911,0.0775 -0.6413,0.1418 -1.34359,0.19275 -0.71498,0.0519 -1.66294,0.0904 -2.76727,0.11627 -2.20866,0.0518 -5.04194,0.0532 -7.8822,0.0108 -2.84027,-0.0424 -5.68761,-0.12849 -7.92507,-0.25218 -1.1187,-0.0618 -2.0855,-0.13315 -2.822,-0.2129 -0.6422,-0.0695 -1.0164,-0.14847 -1.2585,-0.23048 l -0.061,9.29866 c 0.064,-6.3e-4 0.1413,-0.0129 0.2025,-0.0109 0.4831,0.016 0.8722,0.11127 1.201,0.22893 0.3288,0.11766 0.5977,0.25765 0.8408,0.3638 0.243,0.10616 0.46,0.17818 0.6857,0.15968 h 18.61597 c 0.2299,-0.0122 0.44501,-0.13905 0.68885,-0.29817 0.24384,-0.15912 0.51625,-0.35044 0.86093,-0.49144 0.17234,-0.0705 0.36287,-0.12828 0.57671,-0.1633 0.11231,-0.0184 0.25067,-0.01 0.37672,-0.0139 z"
       style="fill:none;stroke:#000000;stroke-width:0.925999;stroke-opacity:1"
       id="path21" /><path
       d="m -1005.4921,230.38955 c 0.098,-0.0546 0.1701,-0.11191 0.3209,-0.16123 0.2476,-0.081 0.5637,-0.15509 0.9384,-0.2222 0.7494,-0.13424 1.7334,-0.24097 2.8717,-0.3235 1.1383,-0.0825 2.43107,-0.14087 3.79873,-0.17673 1.36767,-0.0359 2.81022,-0.0492 4.24781,-0.0434 2.87517,0.0116 5.73069,0.1011 7.92871,0.24908 1.09901,0.074 2.03336,0.16248 2.72387,0.26303 0.62814,0.0915 0.98158,0.19541 1.14566,0.30489 l 0.0295,-24.44398 c -0.20532,0.0701 -0.59359,0.13151 -1.24179,0.1788 -0.71106,0.0519 -1.65364,0.0904 -2.75125,0.11627 -2.19522,0.0518 -5.01025,0.0532 -7.8326,0.0109 -2.82234,-0.0424 -5.65195,-0.1285 -7.87604,-0.25218 -1.112,-0.0618 -2.0728,-0.13315 -2.8055,-0.21291 -0.6793,-0.0739 -1.1064,-0.15694 -1.3327,-0.24494 z"
       style="fill:none;stroke:#000000;stroke-width:0.925999;stroke-opacity:1"
       id="path20" /><path
       d="m -1005.2988,201.23991 c 0.1011,-0.061 0.1874,-0.1236 0.3529,-0.17828 0.2462,-0.0813 0.5602,-0.15547 0.9322,-0.22324 0.7442,-0.13554 1.7202,-0.24493 2.8495,-0.3297 1.1293,-0.0848 2.41177,-0.1453 3.76823,-0.18397 1.35647,-0.0387 2.78702,-0.0555 4.21267,-0.0527 2.85128,0.006 5.68298,0.0896 7.86308,0.23306 1.09005,0.0718 2.0174,0.15862 2.70268,0.25787 0.62271,0.0902 0.9729,0.19359 1.13688,0.30282 l 0.0305,-24.93904 c -0.196,0.0729 -0.60958,0.13581 -1.27434,0.18448 -0.70845,0.0519 -1.64727,0.0904 -2.7404,0.11627 -2.18626,0.0518 -4.98965,0.0532 -7.80004,0.0109 -2.8104,-0.0424 -5.62784,-0.1285 -7.84296,-0.25218 -1.1075,-0.0618 -2.0646,-0.13316 -2.7946,-0.21291 -0.6254,-0.0683 -0.9833,-0.14598 -1.2279,-0.22634 z"
       style="fill:none;stroke:#000000;stroke-width:0.925999;stroke-opacity:1"
       id="path18" /><path
       d="m -1006.2921,76.07701 -99.9804,0.278019 c -0.5958,0.165544 -1.0629,0.374002 -1.4325,0.61495 -0.3696,0.240948 -0.6415,0.514818 -0.8475,0.810286 -0.206,0.295469 -0.346,0.612957 -0.4511,0.942062 -0.1051,0.329104 -0.1756,0.669452 -0.2424,1.011307 l -0.1349,162.440736 c 0.079,0.56474 0.2185,1.00532 0.4041,1.34875 0.1857,0.34343 0.4178,0.58965 0.6832,0.76688 0.2654,0.17723 0.5639,0.28525 0.8826,0.3514 0.3188,0.0661 0.6575,0.0906 1.0031,0.10077 l 99.2621,-0.40515 c 0.353,-0.0994 0.6734,-0.16499 0.9664,-0.2036 0.2187,-0.0288 0.4074,-0.0297 0.5969,-0.0315 l 0.061,-9.29866 c -0.035,-0.012 -0.1593,-0.0213 -0.185,-0.0336 l 0.01,-4.27674 c 0.039,-0.0373 0.1435,-0.0683 0.2062,-0.10336 l 0.1654,-24.95816 c -0.018,-0.007 -0.09,-0.0121 -0.105,-0.0191 l -0.039,-4.08554 c 0.033,-0.0313 0.1228,-0.0571 0.1721,-0.0868 l 0.1684,-25.49301 c -0.041,-0.0135 -0.1769,-0.024 -0.2057,-0.0377 l 0.1039,-4.3248 c 0.025,-0.0239 0.096,-0.0432 0.1313,-0.0661 l 0.1741,-26.30434 -0.055,-2.70681 c 0.014,-0.0134 0.056,-0.0241 0.073,-0.0372 l 0.1659,-25.09098 -0.038,-1.22679 c 0.01,-0.009 0.036,-0.0153 0.046,-0.0238 l 0.1622,-24.480672 c 0,-0.0014 -0.017,-0.0022 -0.02,-0.0036 l -0.1349,-4.324284 c 0.036,-0.03419 0.1298,-0.06231 0.1845,-0.09457 l 0.069,-10.47533 c -0.3313,1.22e-4 -0.6706,0.0041 -0.9565,-0.05013 -0.1931,-0.0366 -0.3681,-0.08823 -0.5152,-0.157613 -0.1471,-0.06938 -0.266,-0.156479 -0.3468,-0.2651 z m -36.1704,7.232634 c 0.5188,-0.0045 0.9898,0.05786 1.4129,0.176216 0.423,0.118358 0.7983,0.292571 1.126,0.511597 0.3277,0.219026 0.6075,0.482814 0.8403,0.780314 0.2327,0.2975 0.4184,0.628587 0.5565,0.982369 0.064,-0.163608 0.083,-0.368521 0.1277,-0.591695 0.045,-0.223174 0.1152,-0.464581 0.2821,-0.700216 0.083,-0.117817 0.1907,-0.234132 0.3312,-0.346232 0.1406,-0.1121 0.3143,-0.219899 0.5297,-0.320394 0.2154,-0.100494 0.4724,-0.193985 0.7803,-0.276985 0.308,-0.083 0.6666,-0.155356 1.0847,-0.214974 l 23.3841,0.236161 -0.2702,26.363245 c -0.1183,0.47546 -0.2824,0.89226 -0.4868,1.25884 -0.2044,0.36658 -0.449,0.68261 -0.7271,0.95602 -0.2781,0.2734 -0.5898,0.5043 -0.9292,0.70021 -0.3393,0.19592 -0.7063,0.3568 -1.0945,0.49093 0.3313,0.17749 0.6791,0.26733 1.0253,0.36483 0.3462,0.0975 0.691,0.20262 1.0165,0.41083 0.1627,0.10411 0.3209,0.23399 0.4718,0.40153 0.1508,0.16753 0.2944,0.37306 0.4289,0.62786 0.1345,0.25481 0.26,0.5591 0.3736,0.92501 0.1137,0.36592 0.2155,0.79312 0.3039,1.29398 l -0.1566,36.1673 c -0.014,0.52618 -0.1113,0.97358 -0.2754,1.35858 -0.1642,0.38499 -0.3952,0.70763 -0.6749,0.98392 -0.2798,0.27628 -0.6086,0.50635 -0.9695,0.70641 -0.3609,0.20006 -0.7537,0.36975 -1.1612,0.52607 0.4115,0.093 0.8149,0.22724 1.2046,0.42891 0.3897,0.20167 0.7655,0.47103 1.123,0.83406 0.3574,0.36303 0.6961,0.81972 1.0107,1.39681 0.3146,0.5771 0.6054,1.27435 0.8667,2.11822 -0.1589,0.49882 -0.3305,0.99933 -0.5364,1.47795 -0.206,0.47861 -0.4463,0.93548 -0.7431,1.34824 -0.2969,0.41275 -0.65,0.78137 -1.0816,1.08262 -0.2159,0.15062 -0.4513,0.28424 -0.709,0.39842 -0.2578,0.11419 -0.5382,0.20908 -0.8434,0.28112 0.4227,0.23738 0.8378,0.48518 1.2268,0.76895 0.389,0.28376 0.7521,0.60345 1.0707,0.98392 0.3187,0.38047 0.5929,0.82179 0.8046,1.34927 0.1059,0.26374 0.196,0.54893 0.2682,0.85886 0.072,0.30993 0.1267,0.64425 0.1608,1.00666 l -0.2915,32.43264 c -0.027,0.42701 -0.012,0.84228 -0.019,1.26349 -0.01,0.42121 -0.035,0.84836 -0.1483,1.29966 -0.057,0.22566 -0.1349,0.45721 -0.2424,0.69712 -0.1075,0.2399 -0.2439,0.48808 -0.4181,0.74672 -0.1741,0.25865 -0.3856,0.5279 -0.6423,0.80977 -0.2567,0.28188 -0.5589,0.57615 -0.9142,0.88574 0.3176,0.24321 0.6465,0.45214 0.9633,0.69763 0.3168,0.24549 0.6217,0.52755 0.8914,0.91777 0.1349,0.19511 0.2607,0.41741 0.3752,0.67541 0.1144,0.25801 0.2172,0.5522 0.3054,0.8909 0.088,0.33871 0.1619,0.72189 0.2181,1.15911 0.056,0.43722 0.095,0.92802 0.1137,1.48156 l -0.1003,22.67614 -25.2088,0.21187 c -0.2557,0.006 -0.5021,-0.0332 -0.7384,-0.12402 -0.2364,-0.0909 -0.4627,-0.23326 -0.6775,-0.4315 -0.2149,-0.19824 -0.4185,-0.4525 -0.6098,-0.76843 -0.1913,-0.31593 -0.3702,-0.69347 -0.5359,-1.1374 -0.1176,0.31802 -0.2503,0.62325 -0.4098,0.90537 -0.1595,0.28212 -0.346,0.54137 -0.5715,0.76688 -0.2256,0.22551 -0.49,0.41765 -0.8057,0.56586 -0.3157,0.1482 -0.6825,0.25263 -1.1126,0.30282 l -31.581,-0.20309 c -0.2447,-0.0743 -0.4882,-0.15433 -0.7271,-0.25993 -0.2388,-0.1056 -0.4733,-0.23683 -0.6991,-0.41186 -0.2259,-0.17503 -0.4429,-0.39386 -0.6486,-0.67645 -0.2056,-0.28258 -0.3994,-0.62851 -0.5777,-1.05678 -0.086,0.2363 -0.212,0.46152 -0.3726,0.67748 -0.1606,0.21596 -0.3562,0.42269 -0.5829,0.62063 -0.4534,0.39588 -1.0303,0.75786 -1.6971,1.09554 l -24.4636,-0.01 -0.056,-25.80153 c 0,-0.3533 0.01,-0.70392 0.06,-1.04335 0.05,-0.33943 0.1405,-0.66769 0.2998,-0.97668 0.1592,-0.30899 0.3874,-0.59844 0.7147,-0.86042 0.3272,-0.26197 0.7533,-0.49613 1.3074,-0.69453 -0.4487,-0.19274 -0.8229,-0.43692 -1.1374,-0.72192 -0.3145,-0.28499 -0.5695,-0.61079 -0.7798,-0.96738 -0.2104,-0.35659 -0.3759,-0.74382 -0.5121,-1.15135 -0.1363,-0.40753 -0.2432,-0.83549 -0.3354,-1.27331 l -0.2026,-35.83037 c 0,-0.32126 0.027,-0.61206 0.071,-0.87643 0.044,-0.26437 0.1074,-0.50217 0.1871,-0.71727 0.1593,-0.43019 0.3848,-0.76967 0.6542,-1.04851 0.2694,-0.27885 0.5826,-0.49727 0.9178,-0.68575 0.3351,-0.18848 0.692,-0.34682 1.0485,-0.50591 -0.3036,-0.10125 -0.6105,-0.18929 -0.9085,-0.31161 -0.298,-0.12232 -0.5872,-0.27894 -0.8542,-0.51728 -0.267,-0.23834 -0.5122,-0.55839 -0.7229,-1.00769 -0.2108,-0.44931 -0.3871,-1.02762 -0.5163,-1.78284 0,-0.5228 0.039,-1.02976 0.1411,-1.51412 0.1017,-0.48436 0.2632,-0.94612 0.5007,-1.38028 0.2375,-0.43415 0.5507,-0.84064 0.9555,-1.21284 0.4048,-0.37221 0.9012,-0.71023 1.5048,-1.00873 -0.2856,-0.21242 -0.5602,-0.29095 -0.818,-0.36483 -0.2578,-0.0739 -0.4985,-0.1435 -0.7157,-0.33848 -0.1086,-0.0975 -0.2114,-0.22611 -0.3075,-0.40256 -0.096,-0.17645 -0.1856,-0.40047 -0.2677,-0.68833 -0.164,-0.57573 -0.2987,-1.40699 -0.3969,-2.6231 l 0.168,-36.00969 c 0.038,-0.37386 0.1047,-0.7274 0.2098,-1.05316 0.1051,-0.32576 0.2493,-0.62354 0.4439,-0.8847 0.1946,-0.26116 0.4394,-0.48605 0.7462,-0.66611 0.3069,-0.18006 0.6758,-0.31544 1.1178,-0.39791 -0.4677,-0.16212 -0.8795,-0.37843 -1.2351,-0.64802 -0.3556,-0.2696 -0.6552,-0.59242 -0.8976,-0.96584 -0.2424,-0.37341 -0.428,-0.79766 -0.5561,-1.27124 -0.128,-0.47358 -0.1982,-0.99622 -0.2108,-1.56631 l 0.2248,-24.722004 22.1361,-0.123506 c 0.3989,0.01635 0.7977,0.0318 1.1953,0.08733 0.3976,0.05553 0.794,0.151271 1.1875,0.329695 0.3935,0.178425 0.7844,0.439208 1.171,0.824239 0.3866,0.385032 0.7687,0.894576 1.1457,1.569931 0.1843,-0.250447 0.3042,-0.564785 0.4361,-0.892969 0.1319,-0.328184 0.2761,-0.67046 0.5085,-0.976168 0.1162,-0.152854 0.2547,-0.296335 0.4248,-0.42478 0.1701,-0.128446 0.3714,-0.241804 0.6144,-0.333313 0.243,-0.09151 0.5274,-0.161558 0.8625,-0.203605 0.3351,-0.04205 0.7211,-0.05612 1.1674,-0.03617 z"
       style="fill:none;stroke:#000000;stroke-width:0.925999;stroke-opacity:1"
       id="path17" /><path
       d="m -1005.1009,171.31823 c 0.1038,-0.0687 0.2085,-0.13751 0.3922,-0.19793 0.2451,-0.0806 0.5575,-0.15368 0.9276,-0.22014 0.7402,-0.13292 1.7108,-0.23855 2.8334,-0.31884 1.12259,-0.0803 2.39746,-0.1354 3.74552,-0.16847 1.34806,-0.0331 2.76963,-0.0439 4.18631,-0.0351 2.83335,0.0175 5.64682,0.11316 7.81347,0.26562 1.08333,0.0762 2.00479,0.16685 2.68614,0.26872 0.58637,0.0877 0.89118,0.18749 1.07177,0.29042 l 0.0326,-26.43353 -0.0863,2.17248 c -0.17134,0.0794 -0.63996,0.14602 -1.33274,0.2005 -0.69277,0.0545 -1.60954,0.0967 -2.6758,0.12713 -2.13252,0.0608 -4.8639,0.0743 -7.60264,0.0439 -2.73873,-0.0304 -5.48469,-0.1049 -7.64613,-0.21962 -1.0806,-0.0574 -2.0151,-0.1244 -2.7295,-0.20154 -0.7144,-0.0771 -1.209,-0.16439 -1.4092,-0.26045 l -0.033,-1.61747 z"
       style="fill:none;stroke:#000000;stroke-width:0.925999;stroke-opacity:1"
       id="path15" /><path
       d="m -1004.4736,76.549849 -0.069,10.47533 c 0.098,-0.05783 0.1767,-0.117739 0.3307,-0.169499 0.2399,-0.08063 0.5445,-0.154196 0.9049,-0.220658 0.7206,-0.132924 1.6633,-0.238033 2.7523,-0.318327 1.08894,-0.08029 2.32416,-0.135402 3.63022,-0.168465 1.30607,-0.03306 2.68317,-0.04391 4.05505,-0.03514 2.74377,0.01754 5.46752,0.113153 7.56698,0.265617 1.04973,0.07623 1.94377,0.166854 2.60553,0.268717 0.66176,0.101864 1.09135,0.214835 1.21388,0.336931 v 4.865336 c -0.17135,0.07944 -0.63592,0.1445 -1.32085,0.19637 -0.68494,0.05187 -1.58992,0.09036 -2.64274,0.116272 -2.10563,0.05182 -4.80156,0.05322 -7.50445,0.01085 -2.70289,-0.04237 -5.41288,-0.128498 -7.54732,-0.252181 -1.0673,-0.06184 -1.9905,-0.13315 -2.697,-0.212907 -0.6964,-0.07861 -1.1712,-0.16599 -1.3767,-0.260449 l -0.1622,24.480674 c 0.1036,-0.0856 0.2504,-0.16693 0.4687,-0.24029 0.2398,-0.0806 0.545,-0.1542 0.9053,-0.22066 0.7207,-0.13292 1.6633,-0.23803 2.7523,-0.31833 1.08901,-0.0803 2.32423,-0.13592 3.63029,-0.16898 1.30607,-0.0331 2.68265,-0.0439 4.05454,-0.0351 2.74377,0.0175 5.46803,0.11367 7.56749,0.26614 1.04974,0.0762 1.94325,0.16633 2.60501,0.2682 0.66176,0.10186 1.09187,0.21535 1.2144,0.33744 v 4.86534 c -0.17134,0.0794 -0.63591,0.1445 -1.32085,0.19637 -0.68494,0.0519 -1.59043,0.0904 -2.64325,0.11627 -2.10563,0.0518 -4.80104,0.0532 -7.50393,0.0108 -2.7029,-0.0424 -5.4134,-0.12849 -7.5479,-0.25218 -1.0672,-0.0618 -1.9904,-0.13315 -2.697,-0.2129 -0.7065,-0.0798 -1.1961,-0.16801 -1.3963,-0.26407 l -0.097,-3.09749 -0.1659,25.09098 c 0.1046,-0.0803 0.2386,-0.15774 0.4475,-0.22738 0.2431,-0.081 0.5526,-0.15509 0.9188,-0.22221 0.7324,-0.13423 1.6918,-0.24096 2.8009,-0.32349 1.10915,-0.0825 2.36773,-0.14087 3.699,-0.17673 1.33127,-0.0359 2.73535,-0.0492 4.13411,-0.0434 2.79753,0.0116 5.575,0.1011 7.71478,0.24908 1.06989,0.074 1.98058,0.16248 2.6541,0.26303 0.61786,0.0923 0.97113,0.19693 1.13068,0.30748 l 0.0801,-65.297829 c -0.17962,-0.01722 -0.34961,-0.0052 -0.5395,-0.05323 -0.38398,-0.09711 -0.79066,-0.262631 -1.22732,-0.517797 l -19.12545,0.03204 c -0.083,0.04904 -0.338,0.1168 -0.6847,0.176733 -0.3467,0.05993 -0.7846,0.112073 -1.2325,0.131258 -0.1163,0.005 -0.2192,-0.01761 -0.3354,-0.01757 z"
       style="fill:none;stroke:#000000;stroke-width:0.925999;stroke-opacity:1"
       id="path11" /><path
       d="m -912.40529,82.754639 -30.08395,0.135392 c -0.44631,-0.01994 -0.83228,-0.0059 -1.16737,0.03617 -0.3351,0.04205 -0.61947,0.112096 -0.86248,0.203606 -0.24301,0.09151 -0.4449,0.204351 -0.61495,0.332796 -0.17006,0.128445 -0.30804,0.272443 -0.42426,0.425297 -0.23245,0.305708 -0.37661,0.647467 -0.5085,0.975651 -0.13189,0.328184 -0.2518,0.642522 -0.43615,0.892969 -0.37694,-0.675355 -0.75956,-1.184382 -1.14618,-1.569414 -0.38663,-0.385032 -0.77696,-0.645814 -1.17047,-0.824239 -0.39351,-0.178424 -0.78992,-0.27468 -1.18753,-0.330212 -0.39761,-0.05553 -0.79688,-0.07046 -1.19579,-0.08682 l -22.13612,0.123507 -0.22479,24.721998 c 0.0126,0.57009 0.0833,1.09274 0.21136,1.56632 0.12805,0.47358 0.31363,0.89782 0.55603,1.27124 0.24241,0.37341 0.54152,0.69572 0.89711,0.96531 0.35559,0.2696 0.76744,0.48643 1.23506,0.64854 -0.44196,0.0825 -0.8104,0.21785 -1.11724,0.39791 -0.30684,0.18006 -0.55217,0.40495 -0.74672,0.66611 -0.19456,0.26116 -0.33828,0.55894 -0.44339,0.8847 -0.1051,0.32576 -0.1713,0.67931 -0.2098,1.05317 l -0.16795,36.00968 c 0.0982,1.21611 0.2323,2.04737 0.39635,2.6231 0.082,0.28786 0.17157,0.51188 0.26769,0.68833 0.0961,0.17645 0.19885,0.30507 0.30747,0.40256 0.21726,0.19498 0.45793,0.26459 0.71572,0.33848 0.25779,0.0739 0.53289,0.15241 0.81856,0.36483 -0.60365,0.2985 -1.10017,0.63653 -1.50482,1.00873 -0.40465,0.3722 -0.71761,0.77817 -0.95498,1.21233 -0.23738,0.43415 -0.39892,0.89644 -0.50075,1.38079 -0.10182,0.48436 -0.14411,0.9908 -0.14211,1.5136 0.12921,0.75522 0.30598,1.33405 0.51677,1.78336 0.21078,0.44931 0.45591,0.76935 0.72295,1.00769 0.26704,0.23834 0.55572,0.39496 0.8537,0.51728 0.29797,0.12232 0.60539,0.21036 0.90898,0.31161 -0.35652,0.1591 -0.71387,0.31743 -1.04903,0.50591 -0.33515,0.18848 -0.64834,0.40691 -0.91777,0.68575 -0.26944,0.27884 -0.49487,0.61832 -0.65422,1.04851 -0.0797,0.2151 -0.14271,0.4529 -0.18656,0.71727 -0.0438,0.26437 -0.0683,0.55517 -0.0708,0.87643 l 0.20257,35.83037 c 0.0922,0.43782 0.19862,0.86526 0.33486,1.2728 0.13625,0.40753 0.30229,0.79475 0.51263,1.15135 0.21034,0.35659 0.46532,0.6829 0.7798,0.9679 0.31448,0.28499 0.68821,0.52865 1.13688,0.7214 -0.55404,0.19839 -0.9794,0.43307 -1.30638,0.69505 -0.32698,0.26197 -0.5556,0.55142 -0.71468,0.86041 -0.15908,0.30899 -0.24887,0.63726 -0.29921,0.97668 -0.0503,0.33943 -0.0607,0.69006 -0.0615,1.04335 l 0.0558,25.80101 24.4631,0.0103 c 0.66679,-0.33769 1.24418,-0.70018 1.69757,-1.09606 0.2267,-0.19794 0.42229,-0.40416 0.58291,-0.62012 0.16063,-0.21596 0.28601,-0.4417 0.37207,-0.67799 0.17833,0.42827 0.3721,0.77419 0.57775,1.05678 0.20564,0.28259 0.42324,0.50193 0.64905,0.67696 0.22581,0.17503 0.45984,0.30574 0.69867,0.41135 0.23882,0.1056 0.48239,0.18614 0.72708,0.26044 l 31.58102,0.20258 c 0.43007,-0.0502 0.79687,-0.15462 1.1126,-0.30283 0.31572,-0.1482 0.58062,-0.33983 0.80615,-0.56534 0.22553,-0.22551 0.41205,-0.48476 0.57154,-0.76688 0.15949,-0.28211 0.29167,-0.58735 0.40928,-0.90537 0.16571,0.44393 0.34508,0.82147 0.5364,1.1374 0.19131,0.31593 0.39493,0.57019 0.60978,0.76843 0.21485,0.19824 0.44063,0.34012 0.67696,0.43098 0.23633,0.0909 0.48323,0.13074 0.73897,0.12454 l 25.20828,-0.21239 0.10026,-22.67562 c -0.0184,-0.55353 -0.057,-1.04434 -0.11317,-1.48156 -0.0562,-0.43722 -0.12987,-0.82091 -0.21808,-1.15962 -0.0882,-0.33871 -0.19097,-0.63238 -0.30541,-0.89039 -0.11444,-0.258 -0.24029,-0.48029 -0.37517,-0.67541 -0.26976,-0.39022 -0.57461,-0.67228 -0.89142,-0.91777 -0.3168,-0.24549 -0.6457,-0.45442 -0.96324,-0.69763 0.35523,-0.30959 0.65694,-0.60386 0.91363,-0.88574 0.2567,-0.28187 0.46823,-0.55112 0.64234,-0.80977 0.17412,-0.25864 0.3111,-0.50681 0.41858,-0.74672 0.10748,-0.23991 0.18556,-0.47146 0.24236,-0.69711 0.11361,-0.45131 0.14172,-0.87898 0.14832,-1.30018 0.007,-0.42121 -0.008,-0.83597 0.0191,-1.26298 l 0.29145,-32.43264 c -0.0341,-0.3624 -0.0884,-0.69673 -0.16071,-1.00666 -0.0723,-0.30993 -0.16286,-0.59512 -0.26872,-0.85886 -0.21172,-0.52748 -0.48597,-0.96932 -0.8046,-1.34979 -0.31864,-0.38047 -0.68126,-0.69963 -1.07022,-0.9834 -0.38897,-0.28377 -0.80409,-0.53209 -1.2268,-0.76946 0.30518,-0.072 0.58508,-0.16642 0.84284,-0.28061 0.25776,-0.11418 0.49318,-0.2478 0.709,-0.39842 0.43165,-0.30125 0.78528,-0.66987 1.08211,-1.08262 0.29683,-0.41276 0.5372,-0.86963 0.7431,-1.34824 0.20591,-0.47862 0.37701,-0.97913 0.53589,-1.47795 -0.26125,-0.84386 -0.5515,-1.54112 -0.8661,-2.11821 -0.3146,-0.5771 -0.65337,-1.03379 -1.01079,-1.39682 -0.35741,-0.36303 -0.73376,-0.63239 -1.12344,-0.83406 -0.38969,-0.20166 -0.79265,-0.3359 -1.20406,-0.42891 0.40742,-0.15632 0.80028,-0.326 1.16116,-0.52607 0.36089,-0.20006 0.68966,-0.43013 0.96945,-0.70641 0.2798,-0.27629 0.51023,-0.59893 0.67438,-0.98392 0.16415,-0.38499 0.262,-0.8324 0.27595,-1.35858 l 0.15658,-36.1673 c -0.0883,-0.50086 -0.19072,-0.92806 -0.30437,-1.29398 -0.11365,-0.36591 -0.23862,-0.67019 -0.3731,-0.925 -0.13449,-0.25481 -0.27859,-0.46033 -0.42944,-0.62787 -0.15084,-0.16754 -0.30855,-0.29742 -0.47128,-0.40153 -0.32548,-0.20821 -0.67025,-0.31333 -1.01648,-0.41083 -0.34623,-0.0975 -0.69402,-0.18734 -1.02526,-0.36483 0.38818,-0.13412 0.75518,-0.29501 1.09451,-0.49093 0.33932,-0.19591 0.65108,-0.42681 0.92914,-0.70021 0.27806,-0.2734 0.52219,-0.58943 0.72657,-0.95602 0.20438,-0.36658 0.36902,-0.78389 0.48731,-1.25935 l 0.27027,-26.362729 -23.38411,-0.236678 c -0.41813,0.05962 -0.77677,0.13249 -1.08469,0.21549 -0.30791,0.083 -0.56492,0.176492 -0.78031,0.276986 -0.21539,0.100494 -0.38911,0.208294 -0.52968,0.320394 -0.14058,0.1121 -0.2483,0.228415 -0.33177,0.346232 -0.16692,0.235634 -0.23746,0.476525 -0.28215,0.699699 -0.0447,0.223174 -0.0635,0.428604 -0.12764,0.592212 -0.13808,-0.353782 -0.32332,-0.684869 -0.55604,-0.982369 -0.23271,-0.297501 -0.51306,-0.561288 -0.84077,-0.780314 -0.32771,-0.219026 -0.70298,-0.393239 -1.12603,-0.511597 -0.42306,-0.118358 -0.89357,-0.181236 -1.41232,-0.176733 z"
       style="fill:none;stroke:#000000;stroke-width:0.925999;stroke-opacity:1"
       id="path9" /><path
       d="m -1042.4625,83.309644 -30.0839,0.134875 c -0.4463,-0.01994 -0.8323,-0.0059 -1.1674,0.03617 -0.3351,0.04205 -0.6195,0.112095 -0.8625,0.203605 -0.243,0.09151 -0.4443,0.204867 -0.6144,0.333313 -0.1701,0.128445 -0.3086,0.271926 -0.4248,0.42478 -0.2324,0.305708 -0.3766,0.647984 -0.5085,0.976168 -0.1319,0.328184 -0.2518,0.642522 -0.4361,0.892969 -0.377,-0.675355 -0.7591,-1.184899 -1.1457,-1.569931 -0.3866,-0.385031 -0.7775,-0.645814 -1.171,-0.824239 -0.3935,-0.178424 -0.7899,-0.274163 -1.1875,-0.329695 -0.3976,-0.05553 -0.7964,-0.07098 -1.1953,-0.08733 l -22.1361,0.123506 -0.2248,24.722005 c 0.013,0.57009 0.083,1.09273 0.2108,1.56631 0.1281,0.47358 0.3137,0.89783 0.5561,1.27124 0.2424,0.37342 0.542,0.69624 0.8976,0.96584 0.3556,0.26959 0.7674,0.4859 1.2351,0.64802 -0.442,0.0825 -0.8109,0.21785 -1.1178,0.39791 -0.3068,0.18006 -0.5516,0.40495 -0.7462,0.66611 -0.1946,0.26116 -0.3388,0.55894 -0.4439,0.8847 -0.1051,0.32576 -0.1713,0.6793 -0.2098,1.05316 l -0.168,36.00969 c 0.098,1.21611 0.2329,2.04737 0.3969,2.6231 0.082,0.28786 0.1716,0.51188 0.2677,0.68833 0.096,0.17645 0.1989,0.30506 0.3075,0.40256 0.2172,0.19498 0.4579,0.26459 0.7157,0.33848 0.2578,0.0739 0.5324,0.15241 0.818,0.36483 -0.6036,0.2985 -1.1,0.63652 -1.5048,1.00873 -0.4048,0.3722 -0.718,0.77869 -0.9555,1.21284 -0.2375,0.43416 -0.399,0.89592 -0.5007,1.38028 -0.1018,0.48436 -0.1436,0.99132 -0.1411,1.51412 0.1292,0.75522 0.3055,1.33353 0.5163,1.78284 0.2107,0.4493 0.4559,0.76935 0.7229,1.00769 0.267,0.23834 0.5562,0.39496 0.8542,0.51728 0.298,0.12232 0.6049,0.21036 0.9085,0.31161 -0.3565,0.15909 -0.7134,0.31743 -1.0485,0.50591 -0.3352,0.18848 -0.6484,0.4069 -0.9178,0.68575 -0.2694,0.27884 -0.4949,0.61832 -0.6542,1.04851 -0.08,0.2151 -0.1432,0.4529 -0.1871,0.71727 -0.044,0.26437 -0.068,0.55517 -0.071,0.87643 l 0.2026,35.83037 c 0.092,0.43782 0.1991,0.86578 0.3354,1.27331 0.1362,0.40753 0.3017,0.79476 0.5121,1.15135 0.2103,0.35659 0.4653,0.68239 0.7798,0.96738 0.3145,0.285 0.6887,0.52918 1.1374,0.72192 -0.5541,0.1984 -0.9802,0.43256 -1.3074,0.69453 -0.3273,0.26198 -0.5555,0.55143 -0.7147,0.86042 -0.1593,0.30899 -0.2496,0.63725 -0.2998,0.97668 -0.05,0.33943 -0.06,0.69005 -0.06,1.04335 l 0.056,25.80153 24.4636,0.01 c 0.6668,-0.33768 1.2437,-0.69966 1.6971,-1.09554 0.2267,-0.19794 0.4223,-0.40467 0.5829,-0.62063 0.1606,-0.21596 0.2865,-0.44118 0.3726,-0.67748 0.1783,0.42827 0.3721,0.7742 0.5777,1.05678 0.2057,0.28259 0.4227,0.50142 0.6486,0.67645 0.2258,0.17503 0.4603,0.30626 0.6991,0.41186 0.2389,0.1056 0.4824,0.18563 0.7271,0.25993 l 31.581,0.20309 c 0.4301,-0.0502 0.7969,-0.15462 1.1126,-0.30282 0.3157,-0.14821 0.5801,-0.34035 0.8057,-0.56586 0.2255,-0.22551 0.412,-0.48476 0.5715,-0.76688 0.1595,-0.28212 0.2922,-0.58735 0.4098,-0.90537 0.1657,0.44393 0.3446,0.82147 0.5359,1.1374 0.1913,0.31593 0.3949,0.57019 0.6098,0.76843 0.2148,0.19824 0.4411,0.34063 0.6775,0.4315 0.2363,0.0909 0.4827,0.13022 0.7384,0.12402 l 25.2088,-0.21187 0.1003,-22.67614 c -0.018,-0.55354 -0.058,-1.04434 -0.1137,-1.48156 -0.056,-0.43722 -0.1299,-0.8204 -0.2181,-1.15911 -0.088,-0.3387 -0.191,-0.63289 -0.3054,-0.8909 -0.1145,-0.258 -0.2403,-0.4803 -0.3752,-0.67541 -0.2697,-0.39022 -0.5746,-0.67228 -0.8914,-0.91777 -0.3168,-0.24549 -0.6457,-0.45442 -0.9633,-0.69763 0.3553,-0.30959 0.6575,-0.60386 0.9142,-0.88574 0.2567,-0.28187 0.4682,-0.55112 0.6423,-0.80977 0.1742,-0.25864 0.3106,-0.50682 0.4181,-0.74672 0.1075,-0.23991 0.1856,-0.47146 0.2424,-0.69712 0.1136,-0.4513 0.1417,-0.87845 0.1483,-1.29966 0.01,-0.42121 -0.01,-0.83648 0.019,-1.26349 l 0.2915,-32.43264 c -0.034,-0.36241 -0.088,-0.69673 -0.1608,-1.00666 -0.072,-0.30993 -0.1623,-0.59512 -0.2682,-0.85886 -0.2117,-0.52748 -0.4859,-0.9688 -0.8046,-1.34927 -0.3186,-0.38047 -0.6817,-0.70016 -1.0707,-0.98392 -0.389,-0.28377 -0.8041,-0.53157 -1.2268,-0.76895 0.3052,-0.072 0.5856,-0.16693 0.8434,-0.28112 0.2577,-0.11418 0.4931,-0.2478 0.709,-0.39842 0.4316,-0.30125 0.7847,-0.66987 1.0816,-1.08262 0.2968,-0.41276 0.5371,-0.86963 0.7431,-1.34824 0.2059,-0.47862 0.3775,-0.97913 0.5364,-1.47795 -0.2613,-0.84387 -0.5521,-1.54112 -0.8667,-2.11822 -0.3146,-0.57709 -0.6533,-1.03378 -1.0107,-1.39681 -0.3575,-0.36303 -0.7333,-0.63239 -1.123,-0.83406 -0.3897,-0.20167 -0.7931,-0.3359 -1.2046,-0.42891 0.4075,-0.15632 0.8003,-0.32601 1.1612,-0.52607 0.3609,-0.20006 0.6897,-0.43013 0.9695,-0.70641 0.2797,-0.27629 0.5107,-0.59893 0.6749,-0.98392 0.1641,-0.385 0.2614,-0.8324 0.2754,-1.35858 l 0.1566,-36.1673 c -0.088,-0.50086 -0.1902,-0.92806 -0.3039,-1.29398 -0.1136,-0.36591 -0.2391,-0.6702 -0.3736,-0.92501 -0.1345,-0.2548 -0.2781,-0.46033 -0.4289,-0.62786 -0.1509,-0.16754 -0.3091,-0.29742 -0.4718,-0.40153 -0.3255,-0.20821 -0.6703,-0.31333 -1.0165,-0.41083 -0.3462,-0.0975 -0.694,-0.18734 -1.0253,-0.36483 0.3882,-0.13413 0.7552,-0.29501 1.0945,-0.49093 0.3394,-0.19591 0.6511,-0.42681 0.9292,-0.70021 0.2781,-0.27341 0.5227,-0.58944 0.7271,-0.95602 0.2044,-0.36658 0.3685,-0.78338 0.4868,-1.25884 l 0.2702,-26.363246 -23.3841,-0.236161 c -0.4181,0.05962 -0.7767,0.131973 -1.0847,0.214974 -0.3079,0.083 -0.5649,0.176491 -0.7803,0.276985 -0.2154,0.100495 -0.3891,0.208294 -0.5297,0.320394 -0.1405,0.1121 -0.2477,0.228415 -0.3312,0.346232 -0.1669,0.235635 -0.2375,0.477042 -0.2821,0.700216 -0.045,0.223174 -0.064,0.428087 -0.1277,0.591695 -0.1381,-0.353782 -0.3238,-0.684869 -0.5565,-0.982369 -0.2328,-0.2975 -0.5126,-0.561288 -0.8403,-0.780314 -0.3277,-0.219026 -0.703,-0.393239 -1.126,-0.511597 -0.4231,-0.118358 -0.8941,-0.180719 -1.4129,-0.176216 z"
       style="fill:none;stroke:#000000;stroke-width:0.925999;stroke-opacity:1"
       id="path10" /><path
       d="m -1004.7428,117.17889 0.097,3.09749 c 0.2002,0.0961 0.6898,0.18431 1.3963,0.26407 0.7066,0.0797 1.6298,0.15106 2.697,0.2129 2.1345,0.12369 4.845,0.20982 7.5479,0.25218 2.70289,0.0424 5.3983,0.041 7.50393,-0.0108 1.05282,-0.0259 1.95831,-0.0644 2.64325,-0.11627 0.68494,-0.0519 1.14951,-0.11693 1.32085,-0.19637 v -4.86534 c -0.12253,-0.12209 -0.55264,-0.23558 -1.2144,-0.33744 -0.66176,-0.10187 -1.55527,-0.19197 -2.60501,-0.2682 -2.09946,-0.15247 -4.82372,-0.2486 -7.56749,-0.26614 -1.37189,-0.009 -2.74847,0.002 -4.05454,0.0351 -1.30606,0.0331 -2.54128,0.0887 -3.63029,0.16898 -1.089,0.0803 -2.0316,0.18541 -2.7523,0.31833 -0.3603,0.0665 -0.6655,0.14003 -0.9053,0.22066 -0.2183,0.0734 -0.3651,0.15467 -0.4687,0.24029 z"
       style="fill:none;stroke:#000000;stroke-width:0.925999;stroke-opacity:1"
       id="path13" /><path
       d="m -1004.5723,91.447648 c 0.2055,0.09446 0.6803,0.181842 1.3767,0.260449 0.7065,0.07976 1.6297,0.151066 2.697,0.212907 2.13444,0.123683 4.84443,0.209814 7.54732,0.252181 2.70289,0.04237 5.39882,0.04097 7.50445,-0.01085 1.05282,-0.02591 1.9578,-0.0644 2.64274,-0.116272 0.68493,-0.05187 1.1495,-0.11693 1.32085,-0.19637 v -4.865336 c -0.12253,-0.122096 -0.55212,-0.235067 -1.21388,-0.336931 -0.66176,-0.101863 -1.5558,-0.192485 -2.60553,-0.268717 -2.09946,-0.152464 -4.82321,-0.24808 -7.56698,-0.265617 -1.37188,-0.0088 -2.74898,0.0021 -4.05505,0.03514 -1.30606,0.03306 -2.54128,0.08817 -3.63022,0.168465 -1.089,0.08029 -2.0317,0.185403 -2.7523,0.318327 -0.3604,0.06646 -0.665,0.140026 -0.9049,0.220658 -0.154,0.05176 -0.2328,0.111673 -0.3307,0.169499 z"
       style="fill:none;stroke:#000000;stroke-width:0.925999;stroke-opacity:1"
       id="path12" /><path
       d="m -1005.1304,175.7469 c 0.2446,0.0804 0.6025,0.15802 1.2279,0.22634 0.73,0.0797 1.6871,0.15106 2.7946,0.21291 2.21511,0.12368 5.03255,0.20981 7.84295,0.25218 2.81039,0.0424 5.61378,0.041 7.80004,-0.0109 1.09313,-0.0259 2.03195,-0.0644 2.7404,-0.11627 0.66476,-0.0487 1.07834,-0.11158 1.27434,-0.18448 l 0.006,-4.92425 c -0.18059,-0.10293 -0.4854,-0.20276 -1.07177,-0.29042 -0.68135,-0.10187 -1.60281,-0.19249 -2.68614,-0.26872 -2.16665,-0.15246 -4.98012,-0.24808 -7.81347,-0.26562 -1.41668,-0.009 -2.83825,0.002 -4.18631,0.0351 -1.34806,0.0331 -2.62293,0.0882 -3.74554,0.16847 -1.1226,0.0803 -2.0932,0.18592 -2.8334,0.31884 -0.3701,0.0665 -0.6825,0.13951 -0.9276,0.22014 -0.1837,0.0604 -0.2884,0.12922 -0.3922,0.19793 z"
       style="fill:none;stroke:#000000;stroke-width:0.925999;stroke-opacity:1"
       id="path16" /><path
       d="m -1004.9268,145.01389 0.033,1.61747 c 0.2002,0.0961 0.6948,0.18331 1.4092,0.26045 0.7144,0.0771 1.6489,0.14418 2.7295,0.20154 2.1614,0.11472 4.90736,0.1892 7.64609,0.21962 2.73874,0.0304 5.47012,0.0169 7.60264,-0.0439 1.06626,-0.0304 1.98303,-0.0726 2.6758,-0.12713 0.69278,-0.0545 1.1614,-0.12106 1.33274,-0.2005 l 0.0863,-2.17248 0.003,-2.6727 c -0.15955,-0.11055 -0.51282,-0.21523 -1.13068,-0.30748 -0.67352,-0.10055 -1.58421,-0.18904 -2.6541,-0.26303 -2.13978,-0.14798 -4.91725,-0.23752 -7.71478,-0.24908 -1.39876,-0.006 -2.80284,0.008 -4.13411,0.0434 -1.33127,0.0359 -2.58985,0.0942 -3.699,0.17673 -1.1091,0.0825 -2.0685,0.18926 -2.8009,0.32349 -0.3662,0.0671 -0.6757,0.14123 -0.9188,0.22221 -0.2089,0.0696 -0.3429,0.14706 -0.4475,0.22738 z"
       style="fill:none;stroke:#000000;stroke-width:0.925999;stroke-opacity:1"
       id="path14" /><path
       d="m -1005.3267,205.43139 c 0.2263,0.088 0.6534,0.17101 1.3327,0.24494 0.7327,0.0798 1.6935,0.15107 2.8055,0.21291 2.22405,0.12368 5.05366,0.20982 7.876,0.25218 2.82235,0.0424 5.63738,0.041 7.8326,-0.0109 1.09761,-0.0259 2.04019,-0.0644 2.75125,-0.11627 0.6482,-0.0473 1.03647,-0.10867 1.24179,-0.1788 l 0.006,-4.76974 c -0.16398,-0.10923 -0.51417,-0.21263 -1.13688,-0.30282 -0.68528,-0.0992 -1.61263,-0.18611 -2.70268,-0.25787 -2.1801,-0.1435 -5.0118,-0.22746 -7.86308,-0.23306 -1.42565,-0.003 -2.8562,0.014 -4.21267,0.0527 -1.35646,0.0387 -2.63893,0.0992 -3.76823,0.18397 -1.1293,0.0848 -2.1053,0.19416 -2.8495,0.3297 -0.372,0.0678 -0.686,0.14191 -0.9322,0.22324 -0.1655,0.0547 -0.2518,0.11725 -0.3529,0.17828 z"
       style="fill:none;stroke:#000000;stroke-width:0.925999;stroke-opacity:1"
       id="path19" /><path
       d="m -1005.5211,234.80324 c 0.242,0.082 0.6162,0.16094 1.2584,0.23048 0.7366,0.0798 1.7033,0.15106 2.822,0.2129 2.23751,0.12369 5.08485,0.20982 7.92512,0.25218 2.84026,0.0424 5.67354,0.041 7.8822,-0.0108 1.10433,-0.0259 2.05229,-0.0644 2.76727,-0.11627 0.70229,-0.051 1.16448,-0.11522 1.34359,-0.19275 l 0.006,-4.89945 c -0.16408,-0.10948 -0.51752,-0.21341 -1.14566,-0.30489 -0.69051,-0.10055 -1.62486,-0.18904 -2.72387,-0.26303 -2.19802,-0.14798 -5.05354,-0.23752 -7.92871,-0.24908 -1.43759,-0.006 -2.88014,0.008 -4.24781,0.0434 -1.36766,0.0359 -2.66043,0.0942 -3.79873,0.17673 -1.1383,0.0825 -2.1223,0.18926 -2.8717,0.3235 -0.3747,0.0671 -0.6908,0.14122 -0.9384,0.2222 -0.1508,0.0493 -0.2232,0.10659 -0.3209,0.16123 z"
       style="fill:none;stroke:#000000;stroke-width:0.925999;stroke-opacity:1"
       id="path22" /></g></svg>
