<?xml version="1.0" encoding="UTF-8" standalone="no"?>
<!-- Created with Inkscape (http://www.inkscape.org/) -->

<svg
   width="11.375081mm"
   height="189.49786mm"
   viewBox="0 0 11.375081 189.49786"
   version="1.1"
   id="svg1"
   xml:space="preserve"
   xmlns="http://www.w3.org/2000/svg"
   xmlns:svg="http://www.w3.org/2000/svg"><defs
     id="defs1" /><g
     id="layer1"
     transform="translate(357.65638,-53.154654)"><path
       style="fill:#000000"
       d="m -357.34652,242.43441 c 0,-0.25425 4.5754,-13.48869 5.17472,-14.96799 0.16201,-0.39992 0.31817,-0.18515 0.76951,1.05833 l 0.56626,1.56006 -2.13076,6.281 -2.13077,6.28099 -1.12448,0.003 c -0.61847,0.002 -1.12448,-0.0953 -1.12448,-0.21525 z m 7.80059,-1.80248 c -0.66802,-1.83163 -0.70506,-2.11001 -0.39591,-2.97657 0.69423,-1.94601 0.81488,-2.2173 0.93338,-2.09879 0.10871,0.1087 2.50986,6.82031 2.50986,7.01545 0,0.0443 -0.51984,0.0805 -1.15519,0.0805 h -1.15518 z m -2.5795,0.78143 c -0.068,-0.11883 -0.31871,-0.81444 -0.55723,-1.54582 l -0.43367,-1.32977 1.88654,-5.4171 c 2.73814,-7.86247 2.59444,-7.05022 1.70881,-9.65863 l -0.75745,-2.2309 0.4695,-1.26171 c 0.25822,-0.69393 0.55709,-1.359 0.66416,-1.47793 0.10707,-0.11893 0.62771,1.01217 1.15698,2.51354 1.88116,5.33628 1.81072,4.46805 0.62938,7.75686 -0.57499,1.60073 -1.80799,5.10376 -2.74,7.78452 -0.93203,2.68076 -1.74158,4.9211 -1.79902,4.97854 -0.0574,0.0574 -0.16003,0.007 -0.228,-0.1116 z m -3.04023,-8.55042 c -0.13664,-0.3638 -0.75222,-2.10081 -1.36795,-3.86002 l -1.11953,-3.19857 1.17879,-3.41602 c 2.53253,-7.3391 4.25087,-12.15558 4.40078,-12.3354 0.0863,-0.10348 0.40537,0.49419 0.7091,1.32814 l 0.55223,1.51629 -2.22214,6.43929 -2.22214,6.43928 0.77228,2.2247 0.77228,2.2247 -0.60264,1.64953 c -0.56168,1.53745 -0.61952,1.60459 -0.85106,0.98808 z m 3.01372,-8.73125 c -0.0873,-0.21828 -0.34362,-0.9302 -0.56964,-1.58204 l -0.41097,-1.18517 2.18758,-6.38573 2.18759,-6.38574 -0.74759,-2.35097 -0.74759,-2.35098 0.59798,-1.5875 c 0.3289,-0.87312 0.64704,-1.44057 0.707,-1.261 0.06,0.17957 0.68439,1.93388 1.38765,3.89846 l 1.27864,3.57198 -2.7537,7.7432 c -1.51454,4.25876 -2.79973,7.86226 -2.85598,8.00778 -0.0562,0.14552 -0.17368,0.086 -0.26097,-0.13229 z m -2.91177,-8.20208 c -0.0878,-0.21829 -0.70542,-1.99116 -1.37261,-3.93972 l -1.21306,-3.54283 2.70532,-7.70196 c 1.48792,-4.23607 2.78749,-7.79633 2.88793,-7.91169 0.10044,-0.11535 0.42038,0.48661 0.71099,1.3377 0.51502,1.50834 0.51631,1.58048 0.0511,2.85557 -0.2625,0.71947 -1.26462,3.58362 -2.22693,6.36477 l -1.74965,5.05664 0.7769,2.2194 0.77691,2.21941 -0.59366,1.71979 c -0.36528,1.05817 -0.65504,1.56711 -0.75322,1.32292 z m 2.95529,-8.88457 c -0.0773,-0.13396 -0.33499,-0.83975 -0.57261,-1.56843 -0.5009,-1.53598 -0.64037,-0.93321 1.92354,-8.31275 1.03269,-2.97236 1.87763,-5.64654 1.87763,-5.94263 0,-0.2961 -0.31258,-1.43604 -0.69463,-2.53322 l -0.69462,-1.99486 0.60627,-1.5875 c 0.33345,-0.87313 0.64866,-1.46844 0.70048,-1.32292 0.0518,0.14552 0.66931,1.87193 1.37221,3.83646 l 1.278,3.57187 -1.65549,4.7625 c -3.12388,8.98671 -4.00044,11.33464 -4.14078,11.09148 z m -3.30185,-9.37188 c -0.2928,-0.80026 -0.91537,-2.58611 -1.38348,-3.96855 l -0.85111,-2.51355 2.27155,-6.48229 c 1.24936,-3.56526 2.52958,-7.18816 2.84493,-8.05089 l 0.57338,-1.5686 0.55774,1.67044 0.55774,1.67044 -2.21069,6.38045 -2.21069,6.38045 0.77026,2.24896 0.77026,2.24896 -0.57877,1.7196 -0.57876,1.71959 z m 2.84099,-9.13194 -0.59894,-1.58349 1.53225,-4.49792 c 0.84274,-2.47385 1.85447,-5.38995 2.24828,-6.48022 l 0.71603,-1.98231 -0.80425,-2.22264 -0.80424,-2.22265 0.47252,-1.35129 c 0.25988,-0.74322 0.55142,-1.44089 0.64786,-1.55038 0.0964,-0.10949 0.77847,1.49767 1.51562,3.57147 1.31024,3.68606 1.33165,3.79426 0.95584,4.82928 -0.21144,0.58231 -1.27806,3.61859 -2.37028,6.74729 -1.09222,3.12869 -2.19418,6.28205 -2.4488,7.00745 l -0.46295,1.31891 z m -2.61879,-7.56607 c -0.13068,-0.3476 -0.73517,-2.06139 -1.34331,-3.80842 l -1.10572,-3.17642 2.6339,-7.53921 c 1.44865,-4.14656 2.72408,-7.76498 2.83428,-8.04093 0.15915,-0.39849 0.31736,-0.1807 0.76883,1.05833 l 0.56844,1.56006 -2.20644,6.46475 -2.20645,6.46475 0.76017,2.26657 0.76017,2.26657 -0.48655,1.43139 c -0.59801,1.75932 -0.67888,1.84642 -0.97732,1.05256 z m 2.61986,-9.71782 -0.59934,-1.60264 1.91366,-5.50369 c 2.767,-7.95786 2.62404,-7.16943 1.74825,-9.64195 -0.76837,-2.16924 -0.76984,-2.53051 -0.0176,-4.33097 0.52364,-1.25325 0.48429,-1.31475 2.03286,3.17757 l 1.18568,3.43958 -1.91971,5.42396 c -1.05583,2.98318 -2.33028,6.59774 -2.8321,8.03237 l -0.9124,2.60841 z m -2.59745,-7.45064 c -0.13664,-0.3638 -0.75294,-2.10287 -1.36957,-3.86459 l -1.12114,-3.20314 2.7085,-7.77707 c 1.48968,-4.27739 2.7811,-7.86174 2.86983,-7.96521 0.0887,-0.10348 0.40984,0.49419 0.71357,1.32814 l 0.55223,1.51629 -2.22726,6.45414 -2.22727,6.45413 0.77508,2.2163 0.77507,2.21631 -0.6003,1.64308 c -0.55973,1.53201 -0.6171,1.59836 -0.84874,0.98162 z m 2.58718,-9.67655 -0.59672,-1.56824 1.80276,-5.29167 c 2.8181,-8.27201 2.51883,-7.65928 3.78738,-7.75427 0.75013,-0.0562 1.08645,0.0238 1.08645,0.25822 0,0.18677 -0.82025,2.66416 -1.82277,5.50531 -1.00252,2.84116 -2.23623,6.3477 -2.74157,7.79231 l -0.91881,2.62658 z m -2.60836,-7.55082 c -0.50854,-1.35977 -2.42427,-6.89088 -2.42427,-6.99937 0,-0.0632 0.52515,-0.11493 1.16699,-0.11493 h 1.16699 l 0.77647,2.31517 0.77647,2.31518 -0.48655,1.43139 c -0.59792,1.75906 -0.67912,1.84662 -0.9761,1.05256 z"
       id="path4" /><path
       style="fill:#000000"
       d="m -357.34652,156.12404 c 0,-0.25425 4.5754,-13.48869 5.17472,-14.96799 0.16201,-0.39992 0.31817,-0.18515 0.76951,1.05833 l 0.56626,1.56006 -2.13076,6.281 -2.13077,6.28099 -1.12448,0.003 c -0.61847,0.002 -1.12448,-0.0953 -1.12448,-0.21525 z m 7.80059,-1.80248 c -0.66802,-1.83163 -0.70506,-2.11001 -0.39591,-2.97657 0.69423,-1.94601 0.81488,-2.2173 0.93338,-2.09879 0.10871,0.1087 2.50986,6.82031 2.50986,7.01545 0,0.0443 -0.51984,0.0805 -1.15519,0.0805 h -1.15518 z m -2.5795,0.78143 c -0.068,-0.11883 -0.31871,-0.81444 -0.55723,-1.54582 l -0.43367,-1.32977 1.88654,-5.4171 c 2.73814,-7.86247 2.59444,-7.05022 1.70881,-9.65863 l -0.75745,-2.2309 0.4695,-1.26171 c 0.25822,-0.69393 0.55709,-1.359 0.66416,-1.47793 0.10707,-0.11893 0.62771,1.01217 1.15698,2.51354 1.88116,5.33628 1.81072,4.46805 0.62938,7.75686 -0.57499,1.60073 -1.80799,5.10376 -2.74,7.78452 -0.93203,2.68076 -1.74158,4.9211 -1.79902,4.97854 -0.0574,0.0574 -0.16003,0.007 -0.228,-0.1116 z m -3.04023,-8.55042 c -0.13664,-0.3638 -0.75222,-2.10081 -1.36795,-3.86002 l -1.11953,-3.19857 1.17879,-3.41602 c 2.53253,-7.3391 4.25087,-12.15558 4.40078,-12.3354 0.0863,-0.10348 0.40537,0.49419 0.7091,1.32814 l 0.55223,1.51629 -2.22214,6.43929 -2.22214,6.43928 0.77228,2.2247 0.77228,2.2247 -0.60264,1.64953 c -0.56168,1.53745 -0.61952,1.60459 -0.85106,0.98808 z m 3.01372,-8.73125 c -0.0873,-0.21828 -0.34362,-0.9302 -0.56964,-1.58204 l -0.41097,-1.18517 2.18758,-6.38573 2.18759,-6.38574 -0.74759,-2.35097 -0.74759,-2.35098 0.59798,-1.5875 c 0.3289,-0.87312 0.64704,-1.44057 0.707,-1.261 0.06,0.17957 0.68439,1.93388 1.38765,3.89846 l 1.27864,3.57198 -2.7537,7.7432 c -1.51454,4.25876 -2.79973,7.86226 -2.85598,8.00778 -0.0562,0.14552 -0.17368,0.086 -0.26097,-0.13229 z m -2.91177,-8.20208 c -0.0878,-0.21829 -0.70542,-1.99116 -1.37261,-3.93972 l -1.21306,-3.54283 2.70532,-7.70196 c 1.48792,-4.23607 2.78749,-7.79633 2.88793,-7.91169 0.10044,-0.11535 0.42038,0.48661 0.71099,1.3377 0.51502,1.50834 0.51631,1.58048 0.0511,2.85557 -0.2625,0.71947 -1.26462,3.58362 -2.22693,6.36477 l -1.74965,5.05664 0.7769,2.2194 0.77691,2.21941 -0.59366,1.71979 c -0.36528,1.05817 -0.65504,1.56711 -0.75322,1.32292 z m 2.95529,-8.88457 c -0.0773,-0.13396 -0.33499,-0.83975 -0.57261,-1.56843 -0.5009,-1.53598 -0.64037,-0.93321 1.92354,-8.31275 1.03269,-2.97236 1.87763,-5.64654 1.87763,-5.94263 0,-0.2961 -0.31258,-1.43604 -0.69463,-2.53322 l -0.69462,-1.99486 0.60627,-1.587501 c 0.33345,-0.87313 0.64866,-1.46844 0.70048,-1.32292 0.0518,0.14552 0.66931,1.87193 1.37221,3.836461 l 1.278,3.57187 -1.65549,4.7625 c -3.12388,8.98671 -4.00044,11.33464 -4.14078,11.09148 z m -3.30185,-9.37188 c -0.2928,-0.80026 -0.91537,-2.58611 -1.38348,-3.96855 l -0.85111,-2.51355 2.27155,-6.482291 c 1.24936,-3.56526 2.52958,-7.18816 2.84493,-8.05089 l 0.57338,-1.5686 0.55774,1.67044 0.55774,1.67044 -2.21069,6.38045 -2.21069,6.380451 0.77026,2.24896 0.77026,2.24896 -0.57877,1.7196 -0.57876,1.71959 z m 2.84099,-9.13194 -0.59894,-1.58349 1.53225,-4.497921 c 0.84274,-2.47385 1.85447,-5.38995 2.24828,-6.48022 l 0.71603,-1.98231 -0.80425,-2.22264 -0.80424,-2.22265 0.47252,-1.35129 c 0.25988,-0.74322 0.55142,-1.44089 0.64786,-1.55038 0.0964,-0.10949 0.77847,1.49767 1.51562,3.57147 1.31024,3.68606 1.33165,3.79426 0.95584,4.82928 -0.21144,0.58231 -1.27806,3.61859 -2.37028,6.74729 -1.09222,3.12869 -2.19418,6.282051 -2.4488,7.007451 l -0.46295,1.31891 z m -2.61879,-7.566071 c -0.13068,-0.3476 -0.73517,-2.06139 -1.34331,-3.80842 l -1.10572,-3.17642 2.6339,-7.53921 c 1.44865,-4.14656 2.72408,-7.76498 2.83428,-8.04093 0.15915,-0.39849 0.31736,-0.1807 0.76883,1.05833 l 0.56844,1.56006 -2.20644,6.46475 -2.20645,6.46475 0.76017,2.26657 0.76017,2.26657 -0.48655,1.43139 c -0.59801,1.75932 -0.67888,1.84642 -0.97732,1.05256 z m 2.61986,-9.71782 -0.59934,-1.60264 1.91366,-5.50369 c 2.767,-7.95786 2.62404,-7.16943 1.74825,-9.64195 -0.76837,-2.16924 -0.76984,-2.53051 -0.0176,-4.33097 0.52364,-1.253247 0.48429,-1.314747 2.03286,3.17757 l 1.18568,3.43958 -1.91971,5.42396 c -1.05583,2.98318 -2.33028,6.59774 -2.8321,8.03237 l -0.9124,2.60841 z m -2.59745,-7.45064 c -0.13664,-0.3638 -0.75294,-2.10287 -1.36957,-3.86459 l -1.12114,-3.20314 2.7085,-7.777067 c 1.48968,-4.27739 2.7811,-7.86174 2.86983,-7.96521 0.0887,-0.10348 0.40984,0.49419 0.71357,1.32814 l 0.55223,1.51629 -2.22726,6.454137 -2.22727,6.45413 0.77508,2.2163 0.77507,2.21631 -0.6003,1.64308 c -0.55973,1.53201 -0.6171,1.59836 -0.84874,0.98162 z m 2.58718,-9.67655 -0.59672,-1.56824 1.80276,-5.291667 c 2.8181,-8.27201 2.51883,-7.65928 3.78738,-7.75427 0.75013,-0.0562 1.08645,0.0238 1.08645,0.25822 0,0.18677 -0.82025,2.66416 -1.82277,5.50531 -1.00252,2.84116 -2.23623,6.347697 -2.74157,7.792307 l -0.91881,2.62658 z m -2.60836,-7.550817 c -0.50854,-1.35977 -2.42427,-6.89088 -2.42427,-6.99937 0,-0.0632 0.52515,-0.11493 1.16699,-0.11493 h 1.16699 l 0.77647,2.31517 0.77647,2.31518 -0.48655,1.43139 c -0.59792,1.75906 -0.67912,1.84662 -0.9761,1.05256 z"
       id="path4-2" /></g></svg>
