<?xml version="1.0" encoding="UTF-8" standalone="no"?>
<!-- Created with Inkscape (http://www.inkscape.org/) -->

<svg
   width="14.999956mm"
   height="216.78706mm"
   viewBox="0 0 14.999956 216.78706"
   version="1.1"
   id="svg1"
   xml:space="preserve"
   xmlns="http://www.w3.org/2000/svg"
   xmlns:svg="http://www.w3.org/2000/svg"><defs
     id="defs1" /><g
     id="layer1"
     transform="translate(315.78663,-36.718181)"><path
       style="fill:#000000;stroke-width:1.31844"
       d="m -309.85632,170.1832 c 0,-1.1681 -0.28414,-1.95696 -1.18953,-3.30235 -1.03699,-1.54096 -1.94999,-4.26169 -1.94999,-5.8109 0,-0.36537 -0.27473,-0.44241 -1.03516,-0.29034 -0.87674,0.17534 -1.09886,0.0673 -1.45134,-0.70639 -0.32236,-0.7075 -0.32236,-1.11936 0,-1.82685 0.35248,-0.77363 0.5746,-0.88174 1.45134,-0.70639 0.76043,0.15208 1.03516,0.075 1.03516,-0.29033 0,-1.54922 0.913,-4.26995 1.94999,-5.81092 1.1864,-1.76298 1.18953,-1.77847 1.18953,-5.88356 0,-4.10509 -0.003,-4.12059 -1.18953,-5.88358 -1.10185,-1.63734 -1.94999,-4.27476 -1.94999,-6.06379 0,-0.58355 -0.0931,-0.65726 -0.41861,-0.33167 -1.24608,1.24607 -2.85973,-0.50111 -2.06789,-2.23901 0.35248,-0.77363 0.5746,-0.88174 1.45134,-0.70639 0.90693,0.18139 1.03516,0.10798 1.03516,-0.59303 0,-1.42188 1.01199,-4.25903 2.08294,-5.83958 1.01161,-1.49295 1.04409,-1.66745 1.05023,-5.64478 0.007,-4.10127 0.005,-4.10549 -1.20039,-5.93021 -0.79707,-1.20616 -1.35437,-2.61169 -1.64167,-4.14043 -0.426,-2.26677 -0.4522,-2.30655 -1.27333,-1.93241 -0.69585,0.31705 -0.92086,0.26921 -1.32344,-0.28133 -0.64258,-0.87879 -0.61489,-2.09448 0.0631,-2.77252 0.63226,-0.63225 1.06404,-0.69506 1.37043,-0.19933 0.45647,0.7386 0.72847,0.2665 1.15558,-2.0058 0.29498,-1.569415 0.845,-2.9636 1.64931,-4.180673 1.20534,-1.823926 1.20672,-1.830781 1.20672,-5.948708 0,-3.997253 -0.0308,-4.164577 -1.00935,-5.49955 -1.02384,-1.396616 -2.13018,-4.499828 -2.13018,-5.97505 0,-0.866119 -0.33646,-1.030436 -0.91841,-0.448505 -0.54302,0.543035 -1.50165,0.02242 -1.74513,-0.94772 -0.45115,-1.79745 1.10351,-3.274907 2.24494,-2.133472 0.32559,0.325574 0.4186,0.251879 0.4186,-0.331663 0,-1.798561 0.84659,-4.411147 1.94841,-6.012931 l 1.19112,-1.731594 v -4.147409 c 0,-3.643119 -0.0863,-4.257142 -0.70995,-5.049972 -1.02809,-1.307005 -1.987,-3.654669 -2.2635,-5.541632 -0.23169,-1.581092 -0.27676,-1.633539 -1.23841,-1.441217 -0.83408,0.166822 -1.06632,0.04958 -1.41416,-0.713833 -0.79184,-1.737893 0.82182,-3.485079 2.06789,-2.238996 0.32559,0.325574 0.4186,0.251879 0.4186,-0.331664 0,-1.789044 0.84815,-4.426469 1.95,-6.06381 0.98838,-1.468712 1.18953,-2.086178 1.18953,-3.651182 0,-1.035952 0.15699,-1.883549 0.34885,-1.883549 0.19185,0 0.34883,0.874321 0.34883,1.942956 0,1.596137 -0.19026,2.219505 -1.06592,3.49222 -1.88283,2.736598 -2.19377,3.841553 -2.20076,7.820604 -0.007,3.941123 0.53134,5.785824 2.40505,8.242395 0.81057,1.062693 0.86163,1.389249 0.86163,5.510349 v 4.380719 l -1.21128,1.586844 c -1.61219,2.112113 -2.07322,3.865591 -2.06065,7.837779 0.009,2.86304 0.14279,3.608079 0.9829,5.475738 0.53482,1.188979 1.26865,2.429865 1.63072,2.757538 0.5818,0.526529 0.65831,1.130494 0.65831,5.196934 0,4.066432 -0.0765,4.670398 -0.65831,5.196926 -1.03056,0.932636 -2.39228,4.362558 -2.64551,6.663518 -0.41134,3.73752 0.84405,8.52159 2.6697,10.17377 0.55055,0.49825 0.63412,1.16737 0.63412,5.07796 0,4.25231 -0.0481,4.56722 -0.86163,5.63373 -3.2012,4.197 -3.42537,11.15468 -0.50052,15.53469 l 1.36215,2.03983 v 4.25254 c 0,3.98481 -0.0542,4.32366 -0.86163,5.38219 -1.86982,2.45146 -2.41148,4.30289 -2.41148,8.24239 0,3.95378 0.50477,5.68054 2.37883,8.13756 0.66387,0.87037 0.89428,1.59089 0.89428,2.7965 0,0.89323 -0.15698,1.62405 -0.34883,1.62405 -0.19186,0 -0.34885,-0.69062 -0.34885,-1.53471 z m -4.01161,-11.0477 c 0,-0.52099 -0.23106,-0.88273 -0.61047,-0.95581 -0.44485,-0.0857 -0.61046,0.11022 -0.61046,0.72197 0,0.46174 0.10798,0.94745 0.23982,1.07935 0.45076,0.45078 0.98111,-0.007 0.98111,-0.84551 z m 0.11034,-27.29906 c 0.0882,-0.74545 -0.0341,-0.93241 -0.61046,-0.93241 -0.52261,0 -0.72084,0.22384 -0.72084,0.81396 0,1.58385 1.14576,1.68579 1.3313,0.1184 z m 0,-27.20925 c 0.0882,-0.74544 -0.0341,-0.9324 -0.61046,-0.9324 -0.52261,0 -0.72084,0.22383 -0.72084,0.81395 0,1.58386 1.14576,1.68579 1.3313,0.1184 z m -0.11034,-27.298626 c 0,-0.66767 -0.17825,-1.017438 -0.51848,-1.017438 -0.57364,0 -0.87432,0.967571 -0.55736,1.793558 0.33139,0.863592 1.07584,0.326526 1.07584,-0.77612 z m 0.11034,-27.267394 c -0.0656,-0.571093 -0.32213,-0.959292 -0.63363,-0.959292 -0.31151,0 -0.56792,0.388199 -0.63363,0.959292 -0.0899,0.781159 0.0278,0.959299 0.63363,0.959299 0.60585,0 0.72351,-0.17814 0.63363,-0.959299 z m 6.3431,119.70113 c 0,-1.65726 -0.12974,-2.05766 -0.85052,-2.62462 -0.46778,-0.36796 -1.29192,-1.56788 -1.83139,-2.66648 -0.86627,-1.76407 -0.98087,-2.38466 -0.98087,-5.3114 0,-2.92675 0.11458,-3.54734 0.98087,-5.31141 0.53947,-1.0986 1.36361,-2.29852 1.83139,-2.66649 0.82911,-0.65217 0.85052,-0.79194 0.85052,-5.55283 v -4.88383 l -1.10034,-1.17061 c -3.51369,-3.73807 -3.64212,-11.23877 -0.25826,-15.08302 l 1.3586,-1.54346 v -4.79116 -4.79118 l -1.37199,-1.48843 c -3.3231,-3.60514 -3.33542,-10.79057 -0.0249,-14.551435 l 1.39696,-1.587039 v -4.77665 -4.776658 l -1.40212,-1.592881 c -3.38274,-3.842995 -3.23088,-11.443745 0.29915,-14.973779 l 1.10297,-1.102969 v -4.769817 -4.769803 l -1.35861,-1.543457 c -2.68433,-3.049556 -3.25958,-8.805387 -1.28364,-12.84404 0.51767,-1.058074 1.32395,-2.224807 1.79173,-2.59277 0.74812,-0.588471 0.85052,-0.946467 0.85052,-2.973462 v -2.30444 h 1.0465 1.04652 v 2.923698 2.923714 l -1.25848,0.959877 c -3.75021,2.860437 -3.89619,9.499112 -0.27887,12.683203 l 1.53735,1.353235 -0.0134,6.235072 -0.0134,6.235087 -1.11585,0.701975 c -2.15976,1.358703 -3.40346,4.924625 -2.89654,8.304967 0.27255,1.817558 1.8894,4.437081 3.15761,5.115814 l 0.88165,0.471847 v 6.319319 6.319327 l -1.04169,0.615335 c -0.57293,0.338444 -1.47555,1.353393 -2.00581,2.25544 -0.83592,1.422 -0.96412,2.0112 -0.96412,4.43079 0,2.44097 0.12486,3.00299 0.99579,4.48482 0.54768,0.93178 1.44931,1.95214 2.00361,2.26744 l 1.00782,0.57331 0.003,6.23507 0.003,6.23508 -1.53737,1.35325 c -3.61776,3.18448 -3.47365,9.73639 0.28003,12.73147 l 1.25732,1.00321 10e-6,6.00081 1e-5,6.00083 -1.66664,1.67359 c -3.45187,3.46629 -3.45187,8.60178 0,12.06807 l 1.66664,1.67359 v 2.42525 2.42524 h -1.04651 c -1.03835,0 -1.04651,-0.0153 -1.04651,-1.95561 z m 2.91611,-4.59746 c -0.41069,-0.32894 -1.23351,-0.86475 -1.82852,-1.19067 -1.4863,-0.81413 -2.39933,-2.77274 -1.90414,-4.08466 0.23677,-0.62726 0.25368,-1.19888 0.0464,-1.56921 -0.80863,-1.44493 0.51073,-3.43406 3.35045,-5.05121 1.75638,-1.00024 2.43294,-0.48622 1.10625,0.84047 -0.87419,0.8742 -0.89451,0.96272 -0.31762,1.38456 1.05675,0.77271 0.0652,1.50324 -1.82637,1.34566 -1.55735,-0.12974 -1.58769,-0.11273 -1.47908,0.83216 0.0972,0.84522 0.2404,0.95059 1.1574,0.85137 0.57558,-0.0623 1.62762,-0.49119 2.33787,-0.95314 1.18009,-0.76755 2.03474,-0.67201 1.51474,0.16934 -0.11009,0.17814 0.15535,0.37437 0.58988,0.43604 1.10608,0.15702 1.12663,1.80844 0.0245,1.96528 -0.50037,0.0712 -0.69892,0.28269 -0.57315,0.61046 0.27033,0.70446 -0.4382,0.62356 -1.55328,-0.17733 -0.51985,-0.37338 -1.53385,-0.78328 -2.25332,-0.91091 -1.23055,-0.2183 -1.30814,-0.17926 -1.30814,0.65826 0,1.11108 0.55301,1.48504 1.29294,0.87433 0.40353,-0.33306 0.60306,-0.3522 0.69912,-0.0671 0.074,0.21946 0.43893,0.31938 0.81113,0.22205 0.97696,-0.25548 1.34179,0.90743 0.48194,1.53617 -0.57321,0.41913 -0.59315,0.53225 -0.1439,0.81597 0.28685,0.18117 0.62491,0.3712 0.75124,0.42227 0.39057,0.15795 0.48824,1.40941 0.11918,1.52687 -0.19186,0.061 -0.68485,-0.15811 -1.09551,-0.48707 z m 0.40614,-26.92181 c -0.12657,-0.20473 -0.85346,-0.69027 -1.61542,-1.07899 -2.12208,-1.0826 -2.71196,-2.33651 -2.6006,-5.52796 0.053,-1.51777 0.30351,-3.00987 0.58067,-3.4581 0.67162,-1.08612 4.12995,-3.01521 4.58668,-2.55848 0.23545,0.23544 0.0301,0.64844 -0.62382,1.25443 -0.93535,0.86686 -0.94829,0.92284 -0.31965,1.38252 1.08675,0.79464 0.13839,1.53452 -1.76383,1.37606 -1.49341,-0.12446 -1.56628,-0.0877 -1.56628,0.79088 0,0.87646 0.0694,0.91205 1.42242,0.73056 0.78234,-0.10495 1.68495,-0.42719 2.00581,-0.71614 0.82014,-0.73853 1.59531,-0.84969 1.61404,-0.23145 0.009,0.28779 0.23422,0.52326 0.5011,0.52326 0.6659,0 1.24296,1.00259 0.97656,1.69677 -0.1205,0.31386 -0.53293,0.57067 -0.91665,0.57067 -0.47684,0 -0.63411,0.16562 -0.49688,0.52324 0.28189,0.7346 -0.42737,0.65073 -1.55648,-0.18406 -0.52619,-0.38903 -1.54018,-0.802 -2.25332,-0.91773 -1.21469,-0.19711 -1.2966,-0.15373 -1.2966,0.68674 0,1.03486 0.53904,1.50367 1.14901,0.99927 0.4755,-0.39322 2.24326,-0.14983 2.55311,0.35152 0.11194,0.18103 -0.0804,0.6428 -0.42733,1.02615 -0.62433,0.68988 -0.49833,0.98229 0.61767,1.4336 0.12631,0.051 0.2833,0.39055 0.34883,0.75437 0.13184,0.73162 -0.55597,1.16033 -0.91904,0.57287 z m -1.47657,-28.35642 c -2.21946,-1.35604 -3.20897,-2.95764 -2.69208,-4.35732 0.22197,-0.60105 0.23658,-1.29203 0.0389,-1.84029 -0.56092,-1.55599 0.45804,-3.24618 2.78112,-4.613206 1.27182,-0.7484 2.12715,-1.063429 2.27523,-0.83798 0.32869,0.500406 -0.32592,1.619769 -0.94723,1.619769 -0.6602,0 -0.64655,0.318527 0.0464,1.084267 0.30659,0.33878 0.46588,0.76408 0.354,0.94513 -0.30984,0.50133 -2.07761,0.74472 -2.55312,0.35151 -0.60026,-0.49639 -1.149,-0.041 -1.149,0.95363 0,1.13855 1.11355,1.13156 3.28046,-0.0206 1.94919,-1.03639 2.01216,-1.04541 1.88018,-0.26944 -0.0564,0.33144 0.0937,0.62578 0.33354,0.65406 0.23982,0.0284 0.59302,0.0711 0.78488,0.0951 0.19186,0.024 0.34885,0.43603 0.34885,0.91569 0,0.47965 -0.15699,0.89172 -0.34885,0.9157 -0.19186,0.024 -0.54506,0.0667 -0.78488,0.0951 -0.23983,0.0284 -0.38992,0.32262 -0.33354,0.65407 0.13435,0.78989 -0.32856,0.76239 -1.40383,-0.0834 -0.47969,-0.37732 -1.5212,-0.78984 -2.31448,-0.91668 -1.37607,-0.22005 -1.44233,-0.18948 -1.44233,0.66545 0,1.03393 0.53927,1.50243 1.149,0.99821 0.47551,-0.39321 2.24328,-0.14982 2.55312,0.35153 0.11193,0.18103 -0.0475,0.60633 -0.354,0.94511 -0.69299,0.76576 -0.70664,1.08427 -0.0464,1.08427 0.56871,0 1.33333,1.17893 0.98838,1.5239 -0.33705,0.33703 -0.49314,0.2787 -2.44437,-0.91347 z m 0.42176,-26.964116 c -0.76744,-0.452571 -1.81238,-1.287228 -2.32209,-1.854788 -0.87113,-0.970017 -0.92177,-1.214981 -0.84376,-4.081913 0.0799,-2.935857 0.12328,-3.083846 1.15956,-3.955335 1.787,-1.502822 3.65569,-2.535036 3.98791,-2.202817 0.31832,0.318321 0.0367,1.467707 -0.36196,1.477202 -0.12341,0.003 -0.45353,0.150329 -0.7337,0.327539 -0.43715,0.276516 -0.41994,0.421026 0.12142,1.019193 0.34693,0.383332 0.53924,0.845105 0.42734,1.026147 -0.30985,0.501335 -2.07759,0.744724 -2.55311,0.351508 -0.60995,-0.504388 -1.149,-0.03562 -1.149,0.999289 0,0.840462 0.0819,0.883849 1.2966,0.686735 0.71314,-0.115762 1.72713,-0.52871 2.25333,-0.917741 1.1291,-0.834785 1.83836,-0.918657 1.55647,-0.184065 -0.13723,0.357621 0.02,0.523243 0.49688,0.523243 0.38372,0 0.79622,0.256807 0.91666,0.570673 0.28859,0.752082 -0.36066,1.723441 -1.06646,1.595552 -0.37802,-0.06855 -0.49197,0.07252 -0.35246,0.436041 0.26261,0.684365 -0.81349,0.727415 -1.58519,0.06345 -0.71674,-0.616716 -2.81073,-1.316088 -3.20706,-1.071154 -0.16983,0.104947 -0.30877,0.57551 -0.30877,1.045669 0,0.799669 0.10113,0.846409 1.56628,0.724347 1.9022,-0.158459 2.85058,0.58142 1.76383,1.376065 -0.62932,0.460176 -0.6177,0.513808 0.29443,1.359137 0.52228,0.484041 0.85302,1.036347 0.73497,1.227363 -0.28701,0.464391 -0.46453,0.418469 -2.09207,-0.54131 z m -0.41865,-27.544946 c -2.60756,-1.709117 -2.87384,-2.255662 -2.76232,-5.669807 0.086,-2.633308 0.18044,-2.972577 1.09235,-3.924413 0.54902,-0.573058 1.18315,-1.041919 1.40917,-1.041919 0.22602,0 0.82304,-0.324149 1.32671,-0.720342 0.50368,-0.396194 1.05952,-0.63149 1.23523,-0.522906 0.33869,0.209332 0.1089,1.588359 -0.2662,1.597434 -0.12156,0.003 -0.45564,0.153712 -0.7425,0.335054 -0.44928,0.284046 -0.42935,0.397154 0.14389,0.816312 0.85987,0.628745 0.49502,1.791646 -0.48194,1.536174 -0.37219,-0.0973 -0.73719,0.003 -0.81113,0.222052 -0.0945,0.280784 -0.31062,0.253522 -0.72917,-0.09202 -0.71859,-0.593262 -1.39649,-0.08833 -1.19485,0.890007 0.17639,0.855867 2.08403,0.726965 3.43048,-0.231794 1.13854,-0.81071 1.88846,-0.898369 1.61624,-0.188932 -0.12578,0.327779 0.0727,0.539271 0.57314,0.61046 0.55502,0.07897 0.76559,0.348809 0.76559,0.981042 0,0.632225 -0.21057,0.902059 -0.76559,0.981034 -0.50036,0.07117 -0.69892,0.282689 -0.57314,0.61046 0.26421,0.688542 -0.32326,0.628355 -1.69365,-0.173527 -0.63452,-0.371286 -1.62458,-0.724482 -2.20017,-0.784894 -0.86075,-0.09031 -1.06633,0.02977 -1.15819,0.676625 -0.12643,0.890021 0.88901,1.501074 1.32421,0.796909 0.1718,-0.277979 0.34946,-0.308376 0.48839,-0.08359 0.12012,0.194324 0.53027,0.271769 0.91147,0.172087 0.97303,-0.254459 1.37222,0.892872 0.52593,1.511679 -0.60548,0.442746 -0.58967,0.510996 0.3118,1.34644 0.52229,0.484034 0.85302,1.036346 0.73497,1.227356 -0.31178,0.504478 -0.50713,0.436236 -2.51072,-0.877009 z"
       id="path2" /><path
       style="fill:#000000;stroke-width:1.31844"
       d="m -309.8772,251.97054 c 0,-1.1681 -0.28415,-1.95696 -1.18953,-3.30234 -1.03699,-1.54097 -1.94999,-4.2617 -1.94999,-5.81091 0,-0.36537 -0.27473,-0.44241 -1.03516,-0.29034 -0.87673,0.17535 -1.09884,0.0673 -1.45134,-0.70639 -0.32236,-0.70749 -0.32236,-1.11936 0,-1.82685 0.3525,-0.77364 0.57461,-0.88174 1.45134,-0.70639 0.76043,0.15208 1.03516,0.075 1.03516,-0.29033 0,-1.54922 0.913,-4.26995 1.94999,-5.81091 1.1864,-1.76299 1.18953,-1.77848 1.18953,-5.88357 0,-4.1051 -0.003,-4.12059 -1.18953,-5.88358 -1.10186,-1.63734 -1.94999,-4.27476 -1.94999,-6.06379 0,-0.58356 -0.0931,-0.65725 -0.41861,-0.33166 -1.24608,1.24606 -2.85973,-0.50112 -2.06789,-2.23902 0.3525,-0.77363 0.57461,-0.88175 1.45134,-0.70639 0.90692,0.18139 1.03516,0.10798 1.03516,-0.59304 0,-1.42187 1.01198,-4.25902 2.08294,-5.83957 1.01161,-1.49295 1.04408,-1.66745 1.05023,-5.64477 0.007,-4.10128 0.005,-4.1055 -1.20039,-5.93022 -0.79707,-1.20616 -1.35438,-2.61169 -1.64168,-4.14043 -0.426,-2.26676 -0.4522,-2.30654 -1.27333,-1.93241 -0.69585,0.31705 -0.92085,0.26921 -1.32342,-0.28133 -0.64259,-0.87879 -0.6149,-2.09448 0.0631,-2.77251 0.63224,-0.63226 1.06403,-0.69507 1.37042,-0.19934 0.45647,0.73861 0.72846,0.2665 1.15557,-2.0058 0.29499,-1.56941 0.84501,-2.9636 1.64931,-4.18067 1.20534,-1.82393 1.20673,-1.83078 1.20673,-5.94872 0,-3.99724 -0.0308,-4.16457 -1.00936,-5.49954 -1.02383,-1.39662 -2.13017,-4.49982 -2.13017,-5.97505 0,-0.86612 -0.33647,-1.03044 -0.91841,-0.4485 -0.54302,0.54303 -1.50165,0.0224 -1.74514,-0.94772 -0.45114,-1.79745 1.10351,-3.27491 2.24494,-2.13347 0.32559,0.32557 0.41861,0.25187 0.41861,-0.33167 0,-1.79856 0.84658,-4.41114 1.94841,-6.01293 l 1.19112,-1.7316 v -4.1474 c 0,-3.64312 -0.0864,-4.25714 -0.70995,-5.04997 -1.02809,-1.30701 -1.98701,-3.65467 -2.26351,-5.54164 -0.23169,-1.58109 -0.27675,-1.63353 -1.23841,-1.44122 -0.83408,0.16682 -1.0663,0.0496 -1.41414,-0.71382 -0.79185,-1.73791 0.82179,-3.48508 2.06787,-2.239 0.32559,0.32557 0.41861,0.25187 0.41861,-0.33167 0,-1.78904 0.84815,-4.42646 1.95,-6.06381 0.98837,-1.46871 1.18953,-2.08617 1.18953,-3.65118 0,-1.03595 0.15698,-1.88355 0.34885,-1.88355 0.19185,0 0.34883,0.87432 0.34883,1.94295 0,1.59615 -0.19027,2.21951 -1.06592,3.49223 -1.88284,2.7366 -2.19377,3.84155 -2.20076,7.8206 -0.007,3.94113 0.53134,5.78583 2.40505,8.24239 0.81056,1.0627 0.86163,1.38925 0.86163,5.51036 v 4.38072 l -1.21128,1.58684 c -1.6122,2.11211 -2.07322,3.86559 -2.06065,7.83778 0.009,2.86304 0.14279,3.60808 0.98289,5.47574 0.53483,1.18898 1.26866,2.42986 1.63073,2.75753 0.58179,0.52653 0.65831,1.1305 0.65831,5.19694 0,4.06643 -0.0765,4.6704 -0.65831,5.19692 -1.03056,0.93264 -2.39228,4.36256 -2.64551,6.66352 -0.41135,3.73751 0.84404,8.52158 2.6697,10.17377 0.55055,0.49825 0.63412,1.16737 0.63412,5.07796 0,4.25231 -0.0482,4.56722 -0.86163,5.63372 -3.20121,4.19702 -3.42538,11.15469 -0.50052,15.5347 l 1.36215,2.03984 v 4.25253 c 0,3.98481 -0.0541,4.32366 -0.86163,5.38219 -1.86982,2.45145 -2.41149,4.30288 -2.41149,8.24239 0,3.95378 0.50478,5.68054 2.37884,8.13756 0.66386,0.87037 0.89428,1.59089 0.89428,2.7965 0,0.89323 -0.15698,1.62405 -0.34883,1.62405 -0.19187,0 -0.34885,-0.69063 -0.34885,-1.53471 z m -4.01162,-11.0477 c 0,-0.52099 -0.23106,-0.88274 -0.61046,-0.9558 -0.44485,-0.0857 -0.61047,0.11022 -0.61047,0.72196 0,0.46174 0.10799,0.94746 0.23984,1.07935 0.45075,0.45078 0.98109,-0.007 0.98109,-0.84551 z m 0.11035,-27.29906 c 0.0882,-0.74544 -0.0341,-0.9324 -0.61046,-0.9324 -0.5226,0 -0.72084,0.22383 -0.72084,0.81395 0,1.58385 1.14576,1.68579 1.3313,0.1184 z m 0,-27.20925 c 0.0882,-0.74544 -0.0341,-0.9324 -0.61046,-0.9324 -0.5226,0 -0.72084,0.22384 -0.72084,0.81395 0,1.58385 1.14576,1.6858 1.3313,0.1184 z m -0.11035,-27.29862 c 0,-0.66767 -0.17824,-1.01744 -0.51847,-1.01744 -0.57365,0 -0.87431,0.96757 -0.55735,1.79356 0.33138,0.86359 1.07582,0.32652 1.07582,-0.77612 z m 0.11035,-27.2674 c -0.0656,-0.57109 -0.32213,-0.95929 -0.63364,-0.95929 -0.3115,0 -0.5679,0.3882 -0.63361,0.95929 -0.0899,0.78116 0.0278,0.95929 0.63361,0.95929 0.60586,0 0.72352,-0.17813 0.63364,-0.95929 z m 6.3431,119.70113 c 0,-1.65726 -0.12974,-2.05766 -0.85053,-2.62461 -0.46778,-0.36797 -1.29191,-1.56789 -1.83139,-2.66649 -0.86626,-1.76407 -0.98086,-2.38466 -0.98086,-5.3114 0,-2.92675 0.11457,-3.54734 0.98086,-5.31141 0.53948,-1.0986 1.36361,-2.29852 1.83139,-2.66648 0.82912,-0.65218 0.85053,-0.79195 0.85053,-5.55284 v -4.88383 l -1.10034,-1.17061 c -3.51369,-3.73806 -3.64212,-11.23876 -0.25826,-15.08302 l 1.3586,-1.54345 v -4.79117 -4.79117 l -1.37199,-1.48844 c -3.3231,-3.60513 -3.33543,-10.79056 -0.0249,-14.55143 l 1.39696,-1.58704 v -4.77665 -4.77666 l -1.40212,-1.59288 c -3.38274,-3.84299 -3.23088,-11.44374 0.29916,-14.97379 l 1.10296,-1.10296 v -4.76981 -4.76981 l -1.35861,-1.54345 c -2.68432,-3.04956 -3.25957,-8.80539 -1.28364,-12.84404 0.51767,-1.05808 1.32395,-2.22482 1.79173,-2.59277 0.74812,-0.58848 0.85052,-0.94647 0.85052,-2.97347 v -2.30444 h 1.04651 1.04651 v 2.9237 2.92372 l -1.25847,0.95987 c -3.75022,2.86044 -3.8962,9.49911 -0.27888,12.68321 l 1.53735,1.35323 -0.0134,6.23507 -0.0134,6.23509 -1.11586,0.70197 c -2.15976,1.35871 -3.40345,4.92463 -2.89654,8.30497 0.27256,1.81756 1.88941,4.43708 3.15761,5.11582 l 0.88166,0.47184 v 6.31932 6.31932 l -1.0417,0.61534 c -0.57293,0.33845 -1.47554,1.3534 -2.00581,2.25544 -0.8359,1.422 -0.96411,2.0112 -0.96411,4.4308 0,2.44096 0.12485,3.00298 0.99579,4.48481 0.54767,0.93179 1.4493,1.95213 2.0036,2.26744 l 1.00782,0.57331 0.003,6.23508 0.003,6.23507 -1.53736,1.35324 c -3.61777,3.18449 -3.47366,9.7364 0.28002,12.73148 l 1.25731,1.00321 2e-5,6.00081 10e-6,6.00084 -1.66663,1.67358 c -3.45189,3.46629 -3.45189,8.60178 0,12.06808 l 1.66663,1.67358 v 2.42526 2.42523 h -1.04651 c -1.03835,0 -1.04651,-0.0153 -1.04651,-1.95561 z m 2.9161,-4.59746 c -0.41068,-0.32893 -1.2335,-0.86475 -1.82851,-1.19066 -1.48631,-0.81414 -2.39934,-2.77274 -1.90414,-4.08467 0.23676,-0.62726 0.25368,-1.19888 0.0464,-1.5692 -0.80862,-1.44494 0.51074,-3.43407 3.35046,-5.05123 1.75638,-1.00022 2.43294,-0.48621 1.10624,0.84048 -0.87419,0.8742 -0.8945,0.96273 -0.31761,1.38456 1.05674,0.77271 0.0652,1.50324 -1.82637,1.34566 -1.55736,-0.12973 -1.5877,-0.11272 -1.47908,0.83216 0.0972,0.84523 0.2404,0.95059 1.1574,0.85137 0.57558,-0.0623 1.62761,-0.49118 2.33787,-0.95314 1.18009,-0.76755 2.03473,-0.67201 1.51474,0.16934 -0.11009,0.17814 0.15535,0.37437 0.58988,0.43605 1.10607,0.15701 1.12663,1.80843 0.0245,1.96527 -0.50036,0.0712 -0.69892,0.28269 -0.57314,0.61046 0.27032,0.70446 -0.43821,0.62356 -1.55329,-0.17732 -0.51984,-0.37338 -1.53385,-0.78329 -2.25331,-0.91093 -1.23055,-0.21829 -1.30815,-0.17925 -1.30815,0.65827 0,1.11108 0.55301,1.48504 1.29295,0.87433 0.40352,-0.33305 0.60306,-0.3522 0.69911,-0.0671 0.0739,0.21945 0.43893,0.31938 0.81113,0.22205 0.97696,-0.25548 1.3418,0.90743 0.48194,1.53616 -0.5732,0.41914 -0.59315,0.53226 -0.1439,0.81599 0.28686,0.18117 0.62491,0.37119 0.75124,0.42227 0.39057,0.15795 0.48824,1.40941 0.11919,1.52686 -0.19187,0.061 -0.68486,-0.15812 -1.09552,-0.48707 z m 0.40615,-26.92181 c -0.12657,-0.20473 -0.85346,-0.69027 -1.61542,-1.07898 -2.12209,-1.08261 -2.71197,-2.33652 -2.6006,-5.52796 0.053,-1.51777 0.30351,-3.00988 0.58067,-3.45811 0.67162,-1.08612 4.12995,-3.01521 4.58668,-2.55848 0.23545,0.23544 0.0301,0.64844 -0.62382,1.25443 -0.93535,0.86686 -0.9483,0.92285 -0.31965,1.38252 1.08674,0.79464 0.13838,1.53452 -1.76384,1.37606 -1.4934,-0.12446 -1.56627,-0.0877 -1.56627,0.79088 0,0.87646 0.0694,0.91205 1.42242,0.73056 0.78233,-0.10495 1.68495,-0.42719 2.0058,-0.71613 0.82015,-0.73854 1.59531,-0.8497 1.61405,-0.23146 0.009,0.28779 0.23421,0.52326 0.50109,0.52326 0.66591,0 1.24297,1.00259 0.97657,1.69677 -0.1205,0.31386 -0.53294,0.57067 -0.91666,0.57067 -0.47683,0 -0.63411,0.16562 -0.49687,0.52324 0.28189,0.7346 -0.42738,0.65073 -1.55648,-0.18406 -0.5262,-0.38903 -1.54018,-0.80201 -2.25332,-0.91773 -1.21469,-0.19712 -1.2966,-0.15372 -1.2966,0.68674 0,1.03487 0.53904,1.50366 1.149,0.99927 0.47551,-0.39321 2.24327,-0.14982 2.55311,0.35152 0.11194,0.18103 -0.0804,0.64281 -0.42732,1.02615 -0.62434,0.68987 -0.49834,0.98229 0.61767,1.43361 0.1263,0.051 0.28329,0.39054 0.34883,0.75437 0.13184,0.73161 -0.55597,1.16032 -0.91904,0.57286 z m -1.47658,-28.35642 c -2.21945,-1.35604 -3.20896,-2.95764 -2.69207,-4.35732 0.22196,-0.60105 0.23658,-1.29203 0.0389,-1.84028 -0.56091,-1.556 0.45804,-3.24619 2.78113,-4.61322 1.27181,-0.74839 2.12715,-1.06342 2.27523,-0.83797 0.32868,0.5004 -0.32592,1.61977 -0.94724,1.61977 -0.66019,0 -0.64655,0.31852 0.0464,1.08427 0.30659,0.33877 0.46588,0.76407 0.354,0.94511 -0.30985,0.50134 -2.07761,0.74473 -2.55311,0.35151 -0.60028,-0.49638 -1.14901,-0.041 -1.14901,0.95365 0,1.13854 1.11355,1.13155 3.28045,-0.0205 1.94919,-1.0364 2.01216,-1.04542 1.88019,-0.26945 -0.0564,0.33144 0.0937,0.62578 0.33354,0.65406 0.23982,0.0284 0.59302,0.0711 0.78488,0.0951 0.19185,0.024 0.34884,0.43603 0.34884,0.9157 0,0.47964 -0.15699,0.8917 -0.34884,0.91569 -0.19186,0.024 -0.54506,0.0667 -0.78488,0.0951 -0.23982,0.0284 -0.38992,0.32262 -0.33354,0.65407 0.13435,0.78989 -0.32857,0.76239 -1.40383,-0.0834 -0.47969,-0.37732 -1.5212,-0.78983 -2.31448,-0.91668 -1.37608,-0.22005 -1.44233,-0.18947 -1.44233,0.66545 0,1.03393 0.53927,1.50242 1.14901,0.99821 0.4755,-0.3932 2.24326,-0.14982 2.55311,0.35153 0.11193,0.18103 -0.0475,0.60633 -0.354,0.94511 -0.693,0.76576 -0.70664,1.08427 -0.0464,1.08427 0.56871,0 1.33334,1.17893 0.98838,1.5239 -0.33704,0.33703 -0.49313,0.2787 -2.44437,-0.91346 z m 0.42177,-26.96411 c -0.76745,-0.45257 -1.81239,-1.28723 -2.32209,-1.8548 -0.87113,-0.97001 -0.92177,-1.21497 -0.84377,-4.0819 0.0799,-2.93586 0.12328,-3.08386 1.15958,-3.95534 1.78699,-1.50282 3.65568,-2.53504 3.9879,-2.20282 0.31832,0.31833 0.0367,1.46771 -0.36197,1.47721 -0.1234,0.003 -0.45353,0.15033 -0.7337,0.32754 -0.43715,0.27651 -0.41993,0.42102 0.12143,1.01918 0.34692,0.38334 0.53923,0.84511 0.42734,1.02616 -0.30985,0.50133 -2.0776,0.74472 -2.55312,0.3515 -0.60995,-0.50439 -1.14899,-0.0356 -1.14899,0.99929 0,0.84046 0.0819,0.88385 1.2966,0.68673 0.71313,-0.11575 1.72713,-0.5287 2.25332,-0.91773 1.1291,-0.83479 1.83836,-0.91867 1.55648,-0.18407 -0.13724,0.35762 0.02,0.52325 0.49688,0.52325 0.38372,0 0.79622,0.2568 0.91666,0.57067 0.28859,0.75207 -0.36066,1.72343 -1.06646,1.59555 -0.37802,-0.0685 -0.49198,0.0725 -0.35246,0.43604 0.26261,0.68437 -0.81349,0.72741 -1.5852,0.0635 -0.71674,-0.61671 -2.81072,-1.31609 -3.20705,-1.07115 -0.16983,0.10494 -0.30877,0.57551 -0.30877,1.04567 0,0.79966 0.10112,0.8464 1.56627,0.72434 1.90221,-0.15846 2.85058,0.58142 1.76384,1.37607 -0.62932,0.46017 -0.61771,0.51381 0.29443,1.35914 0.52227,0.48404 0.85302,1.03634 0.73496,1.22736 -0.28701,0.46439 -0.46452,0.41847 -2.09206,-0.54131 z m -0.41865,-27.54496 c -2.60756,-1.70911 -2.87384,-2.25565 -2.76233,-5.6698 0.086,-2.6333 0.18045,-2.97257 1.09235,-3.92441 0.54903,-0.57306 1.18316,-1.04192 1.40918,-1.04192 0.22602,0 0.82303,-0.32415 1.3267,-0.72034 0.50368,-0.39619 1.05952,-0.63149 1.23523,-0.52291 0.3387,0.20933 0.10891,1.58836 -0.26619,1.59744 -0.12156,0.003 -0.45565,0.15371 -0.7425,0.33505 -0.44929,0.28404 -0.42935,0.39716 0.14389,0.81631 0.85986,0.62875 0.49502,1.79165 -0.48194,1.53618 -0.37219,-0.0973 -0.73719,0.003 -0.81113,0.22205 -0.0945,0.28078 -0.31063,0.25352 -0.72918,-0.092 -0.71858,-0.59326 -1.39648,-0.0883 -1.19484,0.89001 0.17639,0.85587 2.08403,0.72696 3.43048,-0.23179 1.13853,-0.81071 1.88846,-0.89837 1.61623,-0.18893 -0.12577,0.32778 0.0727,0.53927 0.57314,0.61046 0.55502,0.079 0.76559,0.34881 0.76559,0.98104 0,0.63222 -0.21057,0.90206 -0.76559,0.98103 -0.50036,0.0712 -0.69891,0.28269 -0.57314,0.61046 0.26422,0.68855 -0.32325,0.62836 -1.69365,-0.17353 -0.63451,-0.37128 -1.62458,-0.72448 -2.20017,-0.78489 -0.86074,-0.0903 -1.06632,0.0298 -1.15818,0.67662 -0.12644,0.89003 0.88901,1.50108 1.3242,0.79692 0.17181,-0.27798 0.34947,-0.30839 0.4884,-0.0836 0.12011,0.19432 0.53027,0.27177 0.91146,0.17208 0.97304,-0.25445 1.37222,0.89287 0.52594,1.51169 -0.60548,0.44273 -0.58967,0.51099 0.3118,1.34644 0.52228,0.48403 0.85302,1.03633 0.73496,1.22735 -0.31177,0.50448 -0.50713,0.43624 -2.51071,-0.87701 z"
       id="path2-3" /></g></svg>
