<?xml version="1.0" encoding="UTF-8" standalone="no"?>
<!-- Created with Inkscape (http://www.inkscape.org/) -->

<svg
   width="233.74193mm"
   height="169.69649mm"
   viewBox="0 0 233.74193 169.69649"
   version="1.1"
   id="svg1"
   xml:space="preserve"
   xmlns:inkscape="http://www.inkscape.org/namespaces/inkscape"
   xmlns:sodipodi="http://sodipodi.sourceforge.net/DTD/sodipodi-0.dtd"
   xmlns="http://www.w3.org/2000/svg"
   xmlns:svg="http://www.w3.org/2000/svg"><sodipodi:namedview
     id="namedview1"
     pagecolor="#ffffff"
     bordercolor="#111111"
     borderopacity="1"
     inkscape:showpageshadow="0"
     inkscape:pageopacity="0"
     inkscape:pagecheckerboard="1"
     inkscape:deskcolor="#d1d1d1"
     inkscape:document-units="mm" /><defs
     id="defs1" /><g
     inkscape:label="Слой 1"
     inkscape:groupmode="layer"
     id="layer1"
     transform="translate(1109.8439,-75.613119)"><path
       style="fill:none;stroke:#000000;stroke-width:0.925999;stroke-dasharray:none;stroke-opacity:1"
       d="m -1106.2726,76.355246 99.9805,-0.278481 c 0.6461,0.868965 3.7407,0.379076 4.0713,0.182921 l 19.12531,-0.03209 c 1.74664,1.020665 3.01453,0.60511 4.26179,0.127649 l 99.09493,-0.226251 c 1.7168,0.173023 3.07994,0.842384 2.99701,3.541329 l 0.17678,161.456837 c -0.0128,2.50234 -1.34798,2.90437 -2.87175,3.00691 l -99.76861,0.33786 c -3.22822,-1.56152 -3.91176,0.32283 -4.83134,0.37164 h -18.61582 c -0.9028,0.074 -1.6702,-1.30182 -4.4935,-0.50678 l -99.2618,0.40542 c -1.3823,-0.0407 -2.6555,-0.30872 -2.9731,-2.5677 l 0.1351,-162.440713 c 0.2673,-1.367425 0.5901,-2.716377 2.9732,-3.378551 z"
       id="path5"
       sodipodi:nodetypes="ccccccccccccccccc" /><path
       style="fill:none;stroke:#000000;stroke-width:0.925999;stroke-dasharray:none;stroke-opacity:1"
       d="m -1004.3755,76.760672 -1.3515,167.035548"
       id="path6" /><path
       style="fill:none;stroke:#000000;stroke-width:0.925999;stroke-dasharray:none;stroke-opacity:1"
       d="M -981.32873,76.645107 -981.53351,244.0629"
       id="path6-7"
       sodipodi:nodetypes="cc" /></g></svg>
