<?xml version="1.0" encoding="UTF-8" standalone="no"?>
<!-- Created with Inkscape (http://www.inkscape.org/) -->

<svg
   width="26.458332mm"
   height="4.7774258mm"
   viewBox="0 0 26.458332 4.7774258"
   version="1.1"
   id="svg1"
   xml:space="preserve"
   xmlns="http://www.w3.org/2000/svg"
   xmlns:svg="http://www.w3.org/2000/svg"><defs
     id="defs1" /><g
     id="layer1"
     transform="translate(-68.92782,-39.97251)"><path
       style="fill:#000000;stroke-width:0.0317166"
       d="m 69.892886,44.726729 c 0.0231,-0.108301 0.332092,-1.704905 0.332099,-1.716006 5e-6,-0.0084 -0.271107,-0.263252 -0.650679,-0.611564 -0.357878,-0.328407 -0.648792,-0.599 -0.646473,-0.601318 0.0023,-0.0023 0.397331,-0.05231 0.877803,-0.111082 0.480474,-0.05877 0.876682,-0.11021 0.880464,-0.114298 0.0038,-0.0042 0.16991,-0.364291 0.369174,-0.80045 0.199264,-0.436158 0.365178,-0.795922 0.368698,-0.799475 0.0035,-0.0035 0.173775,0.353305 0.378343,0.793016 0.204568,0.439712 0.374237,0.801794 0.377042,0.804626 0.0028,0.0028 0.394056,0.04931 0.869446,0.103292 0.475391,0.05398 0.871228,0.100834 0.87964,0.104126 0.01228,0.0048 -0.112028,0.124529 -0.631476,0.608165 -0.355723,0.331198 -0.64677,0.607583 -0.64677,0.614188 0,0.0066 0.07748,0.3945 0.172172,0.861988 0.09469,0.467489 0.171163,0.854654 0.169931,0.860368 -0.0013,0.0061 -0.318065,-0.164818 -0.773525,-0.417488 -0.424208,-0.235331 -0.774274,-0.427875 -0.777925,-0.427875 -0.005,0 -1.35679,0.759546 -1.524945,0.856814 l -0.02797,0.01618 z"
       id="path2" /><path
       style="fill:#000000;stroke-width:0.0317166"
       d="m 75.257112,44.726729 c 0.0231,-0.108301 0.332092,-1.704905 0.3321,-1.716006 5e-6,-0.0084 -0.271108,-0.263252 -0.650679,-0.611564 -0.357879,-0.328407 -0.648792,-0.599 -0.646474,-0.601318 0.0023,-0.0023 0.39733,-0.05231 0.877804,-0.111082 0.480473,-0.05877 0.876681,-0.11021 0.880462,-0.114298 0.0038,-0.0042 0.169912,-0.364291 0.369176,-0.80045 0.199265,-0.436158 0.365179,-0.795922 0.368699,-0.799475 0.0035,-0.0035 0.173775,0.353305 0.37834,0.793016 0.204569,0.439712 0.374237,0.801794 0.377043,0.804626 0.0028,0.0028 0.394054,0.04931 0.869447,0.103292 0.475388,0.05398 0.871227,0.100834 0.879639,0.104126 0.01228,0.0048 -0.112028,0.124529 -0.631476,0.608165 -0.355723,0.331198 -0.64677,0.607583 -0.64677,0.614188 0,0.0066 0.07748,0.3945 0.17217,0.861988 0.09469,0.467489 0.171164,0.854654 0.169934,0.860368 -0.0012,0.0061 -0.318066,-0.164818 -0.773527,-0.417488 -0.424206,-0.235331 -0.774269,-0.427875 -0.777922,-0.427875 -0.005,0 -1.356791,0.759546 -1.524947,0.856814 l -0.02797,0.01618 z"
       id="path3" /><path
       style="fill:#000000;stroke-width:0.0317166"
       d="m 80.621339,44.726729 c 0.0231,-0.108301 0.332089,-1.704905 0.332096,-1.716006 5e-6,-0.0084 -0.271106,-0.263252 -0.650677,-0.611564 -0.357879,-0.328407 -0.648794,-0.599 -0.646474,-0.601318 0.0023,-0.0023 0.397332,-0.05231 0.877804,-0.111081 0.480472,-0.05877 0.876681,-0.110211 0.880463,-0.114299 0.0038,-0.0042 0.16991,-0.36429 0.369174,-0.80045 0.199264,-0.436158 0.36518,-0.795922 0.368698,-0.799475 0.0035,-0.0035 0.173777,0.353305 0.378343,0.793016 0.204569,0.439712 0.374237,0.801794 0.377044,0.804626 0.0028,0.0028 0.394054,0.04931 0.869447,0.103292 0.475387,0.05398 0.871226,0.100834 0.879639,0.104126 0.01228,0.0048 -0.112026,0.124529 -0.631475,0.608165 -0.355724,0.331198 -0.646772,0.607583 -0.646772,0.614188 0,0.0066 0.07748,0.3945 0.172171,0.861988 0.09469,0.467489 0.171164,0.854654 0.169933,0.860368 -0.0012,0.0061 -0.318067,-0.164818 -0.773527,-0.417488 -0.424206,-0.235331 -0.774272,-0.427875 -0.777924,-0.427875 -0.005,0 -1.35679,0.759546 -1.524947,0.856814 l -0.02797,0.01618 z"
       id="path4" /><path
       style="fill:#000000;stroke-width:0.0317166"
       d="m 85.985564,44.726729 c 0.02308,-0.108301 0.332088,-1.704905 0.332098,-1.716006 4e-6,-0.0084 -0.27111,-0.263252 -0.65068,-0.611564 -0.357877,-0.328407 -0.648794,-0.599 -0.646472,-0.601318 0.0023,-0.0023 0.397329,-0.05231 0.877804,-0.111082 0.480471,-0.05877 0.876681,-0.11021 0.88046,-0.114298 0.0038,-0.0042 0.169914,-0.364291 0.369175,-0.80045 0.199262,-0.436158 0.365177,-0.795922 0.368698,-0.799475 0.0033,-0.0035 0.173774,0.353305 0.378344,0.793016 0.204569,0.439712 0.374234,0.801794 0.377044,0.804626 0.0029,0.0028 0.394051,0.04931 0.869443,0.103292 0.475392,0.05398 0.87123,0.100834 0.879643,0.104126 0.01228,0.0048 -0.11203,0.124529 -0.63148,0.608165 -0.355722,0.331198 -0.646768,0.607583 -0.646768,0.614188 0,0.0066 0.07747,0.3945 0.172169,0.861988 0.09469,0.467489 0.171166,0.854654 0.169933,0.860368 -9.93e-4,0.0061 -0.318066,-0.164818 -0.773527,-0.417488 -0.424207,-0.235331 -0.774272,-0.427875 -0.777922,-0.427875 -0.005,0 -1.356789,0.759546 -1.524944,0.856814 l -0.02795,0.01618 z"
       id="path5" /><path
       style="fill:#000000;stroke-width:0.0317166"
       d="m 91.34979,44.726729 c 0.02308,-0.108301 0.332088,-1.704905 0.332098,-1.716006 4e-6,-0.0084 -0.27111,-0.263252 -0.650681,-0.611564 -0.357877,-0.328407 -0.648793,-0.599 -0.646471,-0.601318 0.0023,-0.0023 0.397328,-0.05231 0.877803,-0.111081 0.48047,-0.05877 0.876682,-0.110211 0.88046,-0.114299 0.0038,-0.0042 0.169914,-0.36429 0.369176,-0.80045 0.199267,-0.436158 0.365181,-0.795922 0.368698,-0.799475 0.0033,-0.0035 0.173778,0.353305 0.378343,0.793016 0.20457,0.439712 0.374239,0.801794 0.377043,0.804626 0.0029,0.0028 0.394057,0.04931 0.869449,0.103292 0.475387,0.05398 0.871225,0.100834 0.879638,0.104126 0.01228,0.0048 -0.112025,0.124529 -0.631475,0.608165 -0.355722,0.331198 -0.646772,0.607583 -0.646772,0.614188 0,0.0066 0.07748,0.3945 0.172173,0.861988 0.09469,0.467489 0.171161,0.854654 0.169933,0.860368 -9.93e-4,0.0061 -0.318066,-0.164818 -0.773527,-0.417488 -0.424207,-0.235331 -0.774272,-0.427875 -0.777927,-0.427875 -0.005,0 -1.356788,0.759546 -1.524944,0.856814 l -0.02795,0.01618 z"
       id="path6" /></g></svg>
